<svg width="14" height="14" viewBox="0 0 14 14" fill="none" xmlns="http://www.w3.org/2000/svg">
<path d="M2.38313 0L1.68597 0.696173L2.72329 1.73301L3.41947 1.03683L2.38313 0ZM11.4814 0L10.4441 1.03683L11.1407 1.73301L12.1776 0.696668L11.4814 0ZM6.93202 0.30897C6.76862 0.310291 6.60358 0.320854 6.43688 0.340659H6.42202C4.41372 0.570902 2.81539 2.19349 2.53761 4.19288C2.31579 5.8021 2.97928 7.26129 4.08494 8.20108C4.53715 8.58711 4.84305 9.11676 4.95144 9.70136V12.6722H6.08037C6.25268 12.9678 6.5671 13.1674 6.93202 13.1674C7.29694 13.1674 7.61136 12.9678 7.78367 12.6722H8.9126V10.6917H8.95914V10.1034C8.95914 9.37754 9.33644 8.64572 9.94943 8.07679C10.7694 7.25585 11.3883 6.08978 11.3883 4.75041C11.3883 2.3044 9.37506 0.286193 6.93202 0.30897ZM6.93202 1.29926C8.84575 1.27252 10.398 2.83916 10.398 4.75041C10.398 5.78725 9.91774 6.70029 9.25276 7.36478L9.26861 7.38062C8.60804 7.9902 8.18079 8.8111 8.06045 9.70186H5.89469C5.78576 8.85318 5.42183 8.03174 4.73408 7.44251C3.85916 6.6998 3.33777 5.58077 3.51206 4.31716C3.72844 2.75746 4.99403 1.50326 6.54482 1.33144C6.67286 1.31369 6.8018 1.30311 6.93103 1.29975L6.93202 1.29926ZM0 4.75041V5.7407H1.48543V4.75041H0ZM12.3786 4.75041V5.7407H13.864V4.75041H12.3786ZM2.72329 8.75811L1.68646 9.79445L2.38313 10.4911L3.41897 9.45429L2.72329 8.75811ZM11.1407 8.75811L10.4446 9.45429L11.4809 10.4911L12.1776 9.79445L11.1407 8.75811ZM5.94173 10.6921H7.92231V11.6824H5.94173V10.6921Z" fill="#890CAD"/>
</svg>
