<svg width="171" height="36" viewBox="0 0 171 36" fill="none" xmlns="http://www.w3.org/2000/svg">
<path d="M14.4085 25.0128C16.3992 24.2496 18.6177 24.9948 19.7689 26.8026C20.7657 26.1373 22.0154 26.0605 23.1372 26.3781C24.2795 22.0925 30.3104 21.7854 31.6203 26.053C33.9859 25.4479 36.5206 26.6702 37.2395 29.1073C37.5791 30.2559 37.7247 31.1545 36.2456 31.1907L0.689847 31.1485C0.262014 31.135 0.0855874 30.5419 0.0356 30.1701C-0.384882 27.0796 3.0025 24.3625 5.80914 25.6074C5.97381 25.5939 6.20757 24.4875 6.33989 24.2045C8.07181 20.4953 13.4234 21.1246 14.41 25.0143L14.4085 25.0128Z" fill="#FF8142"/>
<path d="M21.7543 4.23962C22.1718 5.32045 22.5908 6.41482 22.8599 7.55134C23.0157 8.20917 22.9731 9.06419 23.1098 9.55342C23.2215 9.95384 24.7976 11.0392 25.1843 12.397C25.4475 13.3228 25.5959 16.0384 25.4269 16.9566C25.0961 18.76 22.3732 15.4362 21.8998 15.7478C21.8204 15.8005 21.3661 16.5472 21.3661 16.6586C21.3603 17.2155 23.2965 19.2161 22.0939 19.5653C21.7616 19.6617 21.3955 19.475 21.0927 19.7445C20.5428 20.2292 19.7783 23.5921 19.1123 24.3402C18.3287 24.6654 18.2346 24.134 17.9552 23.5635C17.3642 22.3577 16.9761 20.9638 16.3953 19.7415C16.0792 19.4133 15.1868 19.8408 15.0148 19.186C14.8428 18.5312 15.9322 17.3013 16.1189 16.6586L15.5808 15.5311C14.8575 15.8502 12.983 17.9516 12.2214 17.4654C11.9861 15.6289 11.7392 13.0924 12.6683 11.417C13.0329 10.7592 14.2326 9.88158 14.3414 9.51729C14.5296 8.89258 14.5502 7.84337 14.7428 7.06813C14.9825 6.0972 15.3971 5.17443 15.7323 4.24113C17.7788 5.4198 19.693 5.3069 21.7557 4.24113L21.7543 4.23962ZM18.1831 7.13135C16.7717 7.55887 17.1672 10.559 19.2637 9.89212C20.8104 9.39988 20.2414 6.50965 18.1831 7.13135ZM24.1081 15.6801V12.8952C24.1081 12.7342 23.4318 11.3553 23.0804 11.3147C23.3847 12.2133 22.532 13.6133 22.5203 14.2801C22.5129 14.6986 23.7729 15.4031 24.1081 15.6801ZM13.2285 15.6801L14.9472 14.4051L14.2562 11.4667C13.9739 11.2514 13.2285 13.2415 13.2285 13.4989V15.6816V15.6801ZM20.8736 18.3897L20.1885 17.2095C19.5622 17.2652 17.5053 16.9837 17.1231 17.3344L16.61 18.3897H20.8736ZM19.8445 19.5939H17.7862L18.7418 22.1545L19.8445 19.5939Z" fill="#FF8142"/>
<path d="M60.7173 20.0455V27.798C60.7173 28.6741 61.9038 29.2656 62.6948 29.2325C63.4858 29.1994 64.8339 28.3956 64.8339 27.4969V20.0455H67.9214V31.486H64.981V30.1312C63.0785 32.5668 58.7972 32.4946 57.8769 29.2009C57.8254 29.0158 57.6299 28.0644 57.6299 27.9485V20.2713L57.8504 20.0455H60.7173Z" fill="#1B2240"/>
<path d="M166.866 30.8838H164.954V28.9284L163.68 30.2561C158.789 33.1659 154.253 28.3202 155.796 23.0862C156.854 19.496 161.181 18.0494 164.074 20.4203L164.954 21.3988V19.4418H166.866V30.8823V30.8838ZM161.099 20.9908C156.146 21.1248 156.406 29.5667 161.353 29.389C166.209 29.2144 166.109 20.8553 161.099 20.9908Z" fill="#1B2240"/>
<path d="M46.7501 17.0352V20.0458C47.1661 20.1271 48.4923 19.8261 48.6408 20.2927L48.5966 22.1623L46.7486 22.3023C46.8824 24.2201 46.5751 26.3667 46.7427 28.2559C46.8206 29.135 47.0265 29.2584 47.8762 29.3698C48.2056 29.4135 48.4614 29.1109 48.6613 29.4526V31.6353C47.5484 31.7633 45.1358 31.9153 44.3168 31.0407C44.2213 30.9384 43.8096 30.2595 43.8096 30.2053V22.3023H42.1924V20.0443H43.8096V17.0337H46.7501V17.0352Z" fill="#1B2240"/>
<path d="M56.6004 22.905C55.5286 22.8583 54.0422 22.8764 53.3894 23.9075C53.2762 24.0867 52.9248 24.9417 52.9248 25.0877V31.4853H49.9844V20.0449H52.7778L52.8513 21.8513C53.6246 20.4739 54.7023 19.5361 56.3578 19.7694L56.6018 19.9711V22.9065L56.6004 22.905Z" fill="#1B2240"/>
<path d="M70.4204 19.9698C70.5174 19.6507 73.108 19.6477 73.3653 19.8208C73.4741 19.8945 73.4711 20.1926 73.5931 20.2046C78.0111 18.2507 82.5865 22.1601 81.3427 26.938C80.4414 30.4017 76.6306 31.886 73.5064 30.5808V35.7742L73.2859 36H70.6395L70.4189 35.7742V19.9683L70.4204 19.9698ZM75.9573 22.8119C72.4978 22.8856 72.6963 28.5863 76.635 27.8381C79.3535 27.3218 78.9756 22.7486 75.9573 22.8119Z" fill="url(#paint0_linear_7709_2651)"/>
<path d="M93.3558 26.6686C93.8307 27.7946 95.0598 28.189 96.1875 27.9873C96.7388 27.8879 97.1872 27.3415 97.6224 27.48C97.9694 27.5899 99.5734 29.2292 99.5072 29.5829C99.3955 30.176 97.5856 30.9693 97.0314 31.1108C91.6401 32.4987 87.5558 26.0333 91.1461 21.6227C94.2585 17.8007 100.217 19.303 101.254 24.0764C101.346 24.5039 101.599 26.6686 100.927 26.6686H93.3558ZM97.9135 24.1095C96.927 22.3287 94.1953 22.1692 93.3558 24.1095H97.9135Z" fill="url(#paint1_linear_7709_2651)"/>
<path d="M116.146 26.671C116.57 27.8211 117.881 28.1974 118.979 27.9897C119.434 27.9039 119.804 27.4839 120.076 27.4418C120.566 27.3635 121.859 29.0871 122.311 29.477C120.724 31.744 117.059 31.8027 114.983 30.1965C111.463 27.4719 111.885 21.9624 115.898 20.019C120.127 17.9703 124.976 21.8088 123.949 26.4558L116.148 26.6725L116.146 26.671ZM120.555 24.1105C119.861 22.2364 116.831 22.2454 116.145 24.1105H120.555Z" fill="url(#paint2_linear_7709_2651)"/>
<path d="M105.044 19.7448L105.266 20.3469C107.558 19.4377 110.313 20.4734 111.32 22.8006C111.398 22.9797 111.733 23.9401 111.733 24.0335V30.8074L111.513 31.0332H108.793C108.385 28.986 108.837 26.6904 108.653 24.6281C108.444 22.2903 105.264 23.1513 105.264 24.4851V30.8074L105.044 31.0332H102.544C102.519 31.0332 102.286 30.8014 102.253 30.7291C102.308 27.4701 101.921 23.8001 102.171 20.5637C102.193 20.2732 102.258 20.0188 102.325 19.7433H105.045L105.044 19.7448Z" fill="url(#paint3_linear_7709_2651)"/>
<path d="M125.186 19.7445H127.98L128.2 19.9703V27.1959C128.2 27.2486 128.832 27.8492 128.972 27.9094C129.798 28.2601 130.994 27.6414 130.994 26.7443V19.9703L131.214 19.7445H133.861L134.081 19.9703V27.6475C134.081 28.8457 132.163 30.6807 131.075 31.042C128.575 31.8744 124.966 30.0214 124.966 27.1959V19.9703L125.186 19.7445Z" fill="url(#paint4_linear_7709_2651)"/>
<path d="M147.129 27.9882C147.179 27.9415 147.284 27.6991 147.276 27.6449C147.221 27.2551 145.173 26.534 144.711 26.2465C143.838 25.7046 143.014 24.8195 142.901 23.7341C142.455 19.4605 147.778 18.2909 150.089 21.2037C150.154 21.3903 150.073 21.4957 149.968 21.6342C149.898 21.729 148.179 22.9528 148.05 22.995C147.513 23.1696 147.531 22.7391 147.209 22.6337C146.477 22.3959 145.527 22.9453 146.227 23.4887C146.793 23.9268 147.926 24.1661 148.682 24.7367C152.099 27.3168 149.868 31.5437 145.784 31.1644C144.87 31.0801 141.613 29.9255 142.746 28.6927C143.043 28.3705 144.587 27.3153 144.954 27.4899C145.096 27.5576 145.224 27.8286 145.411 27.9355C145.828 28.1748 146.762 28.3299 147.128 27.9867L147.129 27.9882Z" fill="url(#paint5_linear_7709_2651)"/>
<path d="M82.3286 20.1203C82.3404 20.0465 82.4859 19.7605 82.5771 19.7379C83.3519 19.8328 84.3178 19.628 85.0588 19.7304C85.3396 19.7695 85.2573 20.042 85.3529 20.0465C85.7042 20.0646 86.407 19.7229 86.9583 19.7304C87.3773 19.7364 88.8137 19.9848 88.927 20.4484C88.9608 20.5854 88.0022 22.8073 87.8919 22.878C87.52 23.1174 85.9115 22.5183 85.4808 23.9483L85.2676 31.0309H82.4742C82.5212 30.8834 82.3271 30.7042 82.3271 30.6546V20.1173L82.3286 20.1203Z" fill="url(#paint6_linear_7709_2651)"/>
<path d="M135.11 31.034C135.157 30.8864 134.963 30.7073 134.963 30.6576V20.1204C134.963 20.0782 135.114 19.7696 135.211 19.738C135.924 19.7937 136.693 19.6808 137.396 19.735C137.721 19.7606 137.893 20.0135 138.115 20.0285C138.453 20.0526 138.997 19.7621 139.431 19.7606C140.022 19.7576 141.013 19.9969 141.517 20.3432C141.607 20.4862 140.634 22.6147 140.478 22.7562C140.007 23.1852 138.999 22.4792 138.275 23.5119C138.205 23.6127 137.902 24.2811 137.902 24.3338V30.8067L137.681 31.0325H135.108L135.11 31.034Z" fill="url(#paint7_linear_7709_2651)"/>
<path d="M31.6053 23.3573C29.8499 23.0427 31.0525 21.2333 31.1628 19.9673C31.6333 14.5752 29.4794 9.98698 25.0349 7.12837C24.7659 6.95525 23.7911 6.56838 23.7044 6.4585C23.5265 6.2342 23.475 5.30993 23.2266 4.99231C30.5085 7.33761 34.2473 16.082 31.6053 23.3558V23.3573Z" fill="#FF8142"/>
<path d="M14.2582 4.99341L13.7848 6.4626C8.00968 8.98101 5.07953 15.7354 6.72618 21.9103L5.73378 22.9053C3.48729 15.6858 7.09816 7.30559 14.2596 4.99341H14.2582Z" fill="#FF8142"/>
<path d="M170.69 19.4434H168.778V30.8838H170.69V19.4434Z" fill="#1B2240"/>
<path d="M21.3047 3.77438C19.6566 4.59629 17.76 4.69414 16.1575 3.69611C16.0987 3.3273 17.2351 1.57962 17.5189 1.18071C17.907 0.63578 18.4407 -0.402894 19.1935 0.164614C19.5522 0.435572 21.5032 3.48687 21.3032 3.77438H21.3047Z" fill="#FF8142"/>
<path d="M169.325 15.1101C171.658 14.5712 171.492 18.3136 169.212 17.5699C168.178 17.2327 168.221 15.3645 169.325 15.1101Z" fill="#1B2240"/>
<path d="M153.731 28.3701C155.249 28.2888 155.485 30.9758 153.853 31.0451C152.221 31.1143 151.913 28.4664 153.731 28.3701Z" fill="#1B2240"/>
<defs>
<linearGradient id="paint0_linear_7709_2651" x1="70.4189" y1="27.7271" x2="150.358" y2="27.7271" gradientUnits="userSpaceOnUse">
<stop stop-color="#FF8041"/>
<stop offset="1" stop-color="#FFB76E"/>
</linearGradient>
<linearGradient id="paint1_linear_7709_2651" x1="70.4187" y1="27.727" x2="150.358" y2="27.727" gradientUnits="userSpaceOnUse">
<stop stop-color="#FF8041"/>
<stop offset="1" stop-color="#FFB76E"/>
</linearGradient>
<linearGradient id="paint2_linear_7709_2651" x1="70.4191" y1="27.727" x2="150.358" y2="27.727" gradientUnits="userSpaceOnUse">
<stop stop-color="#FF8041"/>
<stop offset="1" stop-color="#FFB76E"/>
</linearGradient>
<linearGradient id="paint3_linear_7709_2651" x1="70.4183" y1="27.7271" x2="150.357" y2="27.7271" gradientUnits="userSpaceOnUse">
<stop stop-color="#FF8041"/>
<stop offset="1" stop-color="#FFB76E"/>
</linearGradient>
<linearGradient id="paint4_linear_7709_2651" x1="70.419" y1="27.7271" x2="150.358" y2="27.7271" gradientUnits="userSpaceOnUse">
<stop stop-color="#FF8041"/>
<stop offset="1" stop-color="#FFB76E"/>
</linearGradient>
<linearGradient id="paint5_linear_7709_2651" x1="70.4191" y1="27.727" x2="150.358" y2="27.727" gradientUnits="userSpaceOnUse">
<stop stop-color="#FF8041"/>
<stop offset="1" stop-color="#FFB76E"/>
</linearGradient>
<linearGradient id="paint6_linear_7709_2651" x1="70.4184" y1="27.727" x2="150.357" y2="27.727" gradientUnits="userSpaceOnUse">
<stop stop-color="#FF8041"/>
<stop offset="1" stop-color="#FFB76E"/>
</linearGradient>
<linearGradient id="paint7_linear_7709_2651" x1="70.4186" y1="27.7271" x2="150.358" y2="27.7271" gradientUnits="userSpaceOnUse">
<stop stop-color="#FF8041"/>
<stop offset="1" stop-color="#FFB76E"/>
</linearGradient>
</defs>
</svg>
