<svg width="129" height="52" viewBox="0 0 129 52" fill="none" xmlns="http://www.w3.org/2000/svg">
<path d="M15.0055 25.8931L15.047 25.6033L15.3859 25.6436C15.4123 25.673 15.514 25.7134 15.6835 25.7684L15.9358 25.8528V26.0179C16.0752 26.0179 16.1769 25.9628 16.2334 25.8528C16.2899 25.7427 16.3878 25.6877 16.5309 25.6877H16.5724C16.546 25.7977 16.5234 25.9298 16.5083 26.0802C16.4933 26.2306 16.4179 26.3077 16.2748 26.3077H16.192C16.192 26.4728 16.1204 26.5572 15.981 26.5572H15.8944V26.2673C15.6684 26.2673 15.465 26.2527 15.2805 26.227C15.0959 26.2013 14.9076 26.1866 14.708 26.1866C14.708 26.0215 14.659 25.9188 14.5611 25.8784C14.4632 25.8381 14.4255 25.75 14.4556 25.6106L14.4142 25.9005C14.2447 25.9555 13.9472 26.0509 13.5253 26.1903C13.1035 26.3297 12.821 26.3957 12.6779 26.3957C12.6779 26.1756 12.5498 26.0655 12.2974 26.0655C12.0715 26.0655 11.8455 26.1059 11.6195 26.1903C11.3935 26.271 11.1675 26.315 10.9415 26.315C10.8285 26.315 10.7871 26.2893 10.8135 26.2343C10.6176 26.2343 10.4971 26.2086 10.4519 26.1536C10.4105 26.0986 10.3314 26.0032 10.2184 25.8638C10.0225 26.1683 9.85302 26.2893 9.7099 26.2343C9.56677 26.1793 9.39728 26.2196 9.20143 26.359C9.25793 26.4434 9.32195 26.5168 9.39352 26.5865C9.46508 26.6562 9.49898 26.7443 9.49898 26.8543V27.0194C9.38599 27.1295 9.32949 27.2102 9.32949 27.2652C9.32949 27.3202 9.35209 27.3679 9.39352 27.4083C9.43495 27.4486 9.45755 27.511 9.45755 27.5954C9.45755 27.7348 9.42742 27.8155 9.37469 27.8412C9.31819 27.8705 9.22026 27.8816 9.07714 27.8816C9.35962 27.8816 9.57054 27.8962 9.71367 27.9219L9.62704 28.5419H9.41612C9.19013 28.5419 9.0696 28.5896 9.05454 28.685C9.03947 28.7804 9.00557 28.9125 8.94908 29.0776C9.11857 29.0776 9.28052 29.0849 9.43495 29.0996C9.58937 29.1142 9.75133 29.1363 9.92082 29.1619L9.87939 29.4921L9.24663 29.4077C9.38599 29.4077 9.50651 29.4481 9.60444 29.5325C9.70237 29.6168 9.79653 29.6976 9.87939 29.7783V29.8627C9.87939 30.0021 9.90575 30.1231 9.96602 30.2332C10.0225 30.3433 10.0489 30.468 10.0489 30.6037V30.6881C9.85302 30.6881 9.75133 30.7835 9.75133 30.9779C9.80783 31.088 9.85679 31.1687 9.89822 31.2237C9.93965 31.2788 9.96225 31.3742 9.96225 31.5136V31.8841H9.87562C9.93212 31.9135 10.0037 31.9465 10.0865 31.9868C10.1732 32.0272 10.2146 32.0896 10.2146 32.1739V32.2143L9.87562 32.5041V32.5885C9.87562 32.7536 9.97355 32.8343 10.1732 32.8343C10.0865 32.8893 9.98862 32.9517 9.87562 33.0214C9.76263 33.0911 9.64964 33.1095 9.53664 33.0838C9.70613 33.1131 9.86056 33.1608 10.0037 33.2269C10.143 33.2966 10.2862 33.3699 10.4255 33.4543H10.128V33.4947C10.0978 33.579 10.1355 33.6047 10.2334 33.579C10.3314 33.5534 10.3803 33.579 10.3803 33.6598C10.3803 33.8505 10.3238 34.045 10.2108 34.2357C10.0978 34.4302 10.0413 34.621 10.0413 34.8117C10.0413 34.9218 10.1393 34.9768 10.3389 34.9768C10.2523 35.0612 10.1769 35.1493 10.1054 35.2446C10.0338 35.34 9.99992 35.4427 9.99992 35.5528C10.1393 35.5822 10.2259 35.6152 10.2523 35.6555C10.2786 35.6959 10.2786 35.7876 10.2523 35.9233C10.3389 35.9784 10.3803 36.0738 10.3803 36.2132C10.3803 36.3232 10.3238 36.4186 10.2108 36.503C10.0677 36.4773 10.015 36.5324 10.0413 36.6681C10.0677 36.8075 9.99992 36.9432 9.83043 37.079C10.0564 37.1083 10.2598 37.2367 10.4444 37.4715C10.6289 37.7063 10.7833 37.9815 10.9114 38.297C11.0395 38.6125 11.1449 38.9243 11.2278 39.2252C11.3144 39.526 11.3973 39.7608 11.4801 39.9259L11.7325 39.9663C11.8718 39.8562 12.03 39.8158 12.1995 39.8415C12.369 39.8709 12.5234 39.8819 12.6666 39.8819C12.8361 39.8819 12.949 39.8562 13.0055 39.8012H13.3031C13.1901 39.8012 13.0846 39.7938 12.9867 39.7792C12.8888 39.7645 12.7946 39.7571 12.7118 39.7571L12.7984 39.1371C12.9679 39.2472 13.1374 39.3022 13.3069 39.3022C13.4763 39.3022 13.6534 39.2619 13.8342 39.1775C14.0187 39.0931 14.1807 39.0271 14.32 38.972C14.3765 38.6712 14.6025 38.3961 14.998 38.1466C15.3935 37.9008 15.7437 37.776 16.0564 37.776C16.1995 37.776 16.2974 37.8054 16.3539 37.8604C16.4104 37.9155 16.4933 37.9448 16.6063 37.9448L16.6477 37.6953C16.5912 37.6403 16.5046 37.5523 16.3953 37.4275C16.2824 37.3028 16.1995 37.2404 16.143 37.2404L16.1016 37.3248V36.9946C16.2146 36.9139 16.32 36.8222 16.4179 36.7268C16.5159 36.6314 16.6364 36.5544 16.7795 36.4993C16.7494 36.4993 16.7004 36.492 16.6326 36.4773C16.5611 36.4626 16.5272 36.4443 16.5272 36.415L16.7795 36.1692L16.821 35.8793C16.9038 35.7949 16.9829 35.7546 17.0545 35.7546H17.3294C17.416 35.7546 17.4575 35.6996 17.4575 35.5895C17.401 35.5895 17.3596 35.5748 17.3294 35.5491C17.3294 35.4391 17.2729 35.3584 17.1599 35.3033C17.2428 35.2483 17.3219 35.1933 17.3935 35.1382C17.465 35.0832 17.5554 35.0575 17.6684 35.0575C17.8643 35.0575 18.0224 35.0722 18.1354 35.0979V35.1382C18.1354 35.1933 18.1995 35.2703 18.3275 35.3657C18.4556 35.4611 18.6025 35.5565 18.772 35.6555C18.9415 35.7509 19.1034 35.8426 19.2578 35.9233C19.4123 36.0041 19.5177 36.0628 19.5742 36.0884L19.2352 36.3783C19.5177 36.4333 19.7437 36.5103 19.9132 36.6057C20.0827 36.7011 20.2522 36.8589 20.4217 37.079C20.1957 37.1891 20.0902 37.2991 20.1053 37.4092C20.1204 37.5192 20.1279 37.6696 20.1279 37.8641C20.1279 37.9485 20.0978 38.0695 20.0413 38.2346H19.7023L19.9998 38.5648C19.8567 38.5648 19.6835 38.6345 19.4725 38.7703C19.2616 38.9097 19.0997 39.0197 18.9867 39.1004C19.0997 39.1004 19.1712 39.1555 19.1976 39.2655C19.2239 39.3756 19.239 39.471 19.239 39.5554V39.7205C19.1825 39.7205 19.1486 39.7131 19.1336 39.6984C19.1185 39.6838 19.0846 39.6764 19.0281 39.6764C18.9415 39.6764 18.8737 39.7021 18.8172 39.7571C18.7607 39.8122 18.7042 39.8672 18.6477 39.9222L18.6062 40.2524L17.6307 40.168L17.5893 40.4982L17.2918 40.4579L17.5893 40.7477H17.5479C17.4048 40.7477 17.3068 40.7954 17.2503 40.8908C17.1938 40.9862 17.0959 41.0338 16.9528 41.0338C16.9791 40.9238 17.0093 40.8211 17.0356 40.7257C17.062 40.6303 17.0771 40.5386 17.0771 40.4579C17.0771 40.3772 17.0356 40.3074 16.949 40.2524C16.8661 40.1974 16.7946 40.1424 16.7381 40.0873C16.708 40.3882 16.6402 40.6523 16.5272 40.8724C16.4142 41.0926 16.3313 41.3273 16.2748 41.5731C16.2447 41.7382 16.1694 41.8263 16.0413 41.841C15.9132 41.8556 15.7814 41.8483 15.6383 41.819L15.5969 42.1088L15.2993 42.0684C15.2993 42.2078 15.3407 42.3142 15.4274 42.3986C15.2315 42.3986 15.0959 42.3839 15.0244 42.3583C14.9528 42.3326 14.9114 42.2812 14.8963 42.2152C14.8812 42.1455 14.8699 42.0794 14.8549 42.0097C14.8398 41.94 14.7908 41.8666 14.708 41.7823C14.5385 41.8923 14.433 42.0171 14.3916 42.1528C14.3502 42.2922 14.3125 42.4426 14.2861 42.6077H14.6251C14.595 42.7728 14.5761 42.9086 14.5611 43.0186C14.546 43.1287 14.4255 43.1837 14.1995 43.1837C14.1129 43.1837 14.0451 43.169 13.9886 43.1434C13.9585 43.0333 13.9735 42.8425 14.03 42.5674C13.917 42.5674 13.8116 42.56 13.7136 42.5454C13.6157 42.5307 13.5102 42.5233 13.3973 42.5233C13.2541 42.6041 13.1411 42.6481 13.0583 42.6481C12.8888 42.6481 12.7344 42.6224 12.5912 42.5674C12.4481 42.5123 12.3087 42.472 12.1694 42.4426C12.0865 42.4977 12.0263 42.5454 11.9999 42.5857C11.9698 42.6261 11.9434 42.6664 11.9133 42.7104C11.8831 42.7508 11.8417 42.7875 11.7852 42.8132C11.7287 42.8389 11.6308 42.8829 11.4877 42.9379C11.4312 42.8535 11.3031 42.7655 11.1073 42.6701C10.9076 42.5747 10.6703 42.45 10.3879 42.2996C10.1054 42.1491 9.81536 41.962 9.52158 41.7419C9.22403 41.5218 8.96414 41.2613 8.73816 40.9568C8.79465 40.656 8.82478 40.5166 8.82478 40.5459C8.82478 40.5753 8.92271 40.5202 9.12233 40.3808L9.0809 40.6706C8.99427 40.6706 8.95284 40.7 8.95284 40.755C8.95284 40.8101 8.96791 40.8578 8.99427 40.8981C9.02064 40.9385 9.03571 40.9752 9.03571 41.0008C9.06207 40.9752 9.1148 40.9311 9.1826 40.8761C9.25416 40.8211 9.27299 40.766 9.24663 40.711C9.30312 40.6853 9.37845 40.678 9.48015 40.689C9.57807 40.7037 9.65717 40.711 9.71367 40.711L9.7551 40.4212C9.47261 40.3661 9.26169 40.3515 9.11857 40.3808C9.11857 40.19 9.1035 40.0727 9.07714 40.0286C9.05077 39.9883 8.97921 39.8966 8.86621 39.7608C8.80972 39.8158 8.74569 39.8782 8.67413 39.9479C8.60256 40.0176 8.52724 40.0506 8.44061 40.0506C8.24475 40.0506 8.11669 39.9222 8.0602 39.6581C8.0037 39.3976 7.98863 39.1958 8.01876 39.0601L7.38224 38.9757C7.46886 38.895 7.61575 38.818 7.82668 38.7483C8.0376 38.6785 8.15812 38.5758 8.18826 38.4401C8.04513 38.3043 7.89824 38.242 7.74381 38.253C7.58939 38.2677 7.43873 38.1906 7.29937 38.0255C7.43873 37.9155 7.53289 37.8384 7.57432 37.7981C7.61575 37.7577 7.63835 37.6403 7.63835 37.4495C7.55173 37.4238 7.4538 37.4092 7.3408 37.4092H7.00182C7.05832 37.3541 7.10728 37.2661 7.14872 37.1414C7.19015 37.0166 7.21275 36.9139 7.21275 36.8332C7.21275 36.7782 7.19015 36.7378 7.14872 36.7085C7.10728 36.6828 7.08469 36.6241 7.08469 36.5434C7.22781 36.4333 7.34457 36.3306 7.44626 36.2352C7.54796 36.1398 7.66472 36.0481 7.80408 35.9674C7.63459 35.9417 7.52913 35.9123 7.4877 35.8867C7.44626 35.861 7.3521 35.7766 7.21275 35.6409H7.55173C7.74758 35.6409 7.84928 35.5565 7.84928 35.3951H7.51029C7.4538 35.3107 7.3973 35.2373 7.3408 35.1676C7.28431 35.0979 7.25418 35.0098 7.25418 34.8998C7.25418 34.8741 7.26171 34.8447 7.27677 34.8154C7.29184 34.7897 7.29937 34.7604 7.29937 34.7347H7.59692L6.96039 34.6943C6.98676 34.6393 7.02442 34.5219 7.06585 34.3421C7.10729 34.1624 7.15625 34.089 7.21275 34.1147V34.0303C7.21275 33.9459 7.19768 33.8725 7.17131 33.8028C7.14495 33.7331 7.12988 33.6598 7.12988 33.5754V33.4506C7.24288 33.3956 7.29937 33.3259 7.29937 33.2452C7.29937 33.1645 7.28431 33.0801 7.25794 32.9994C7.23158 32.915 7.21651 32.8343 7.21651 32.7499V32.5848C7.27301 32.5848 7.35964 32.6068 7.47263 32.6472C7.58562 32.6876 7.65719 32.7352 7.68355 32.7903C7.70992 32.7646 7.74005 32.7426 7.76641 32.7279C7.79278 32.7132 7.82291 32.6949 7.84928 32.6655C7.82291 32.6105 7.77771 32.5555 7.72122 32.5005C7.66472 32.4454 7.60822 32.4307 7.55173 32.4601L7.51029 32.295C7.67978 32.3244 7.79278 32.3574 7.84928 32.3977C7.90577 32.4381 7.95474 32.4784 7.99617 32.5225C8.0376 32.5628 8.08656 32.6068 8.14306 32.6472C8.19955 32.6876 8.29748 32.7096 8.44061 32.7096V32.3794C8.13176 32.1886 7.85681 31.9722 7.61576 31.741C7.3747 31.5062 7.14118 31.2678 6.91896 31.0183L6.96039 30.7285H7.12988C7.24288 30.7285 7.29937 30.6331 7.29937 30.4386L7.00182 30.3983C7.00182 30.2075 7.09975 30.1378 7.29937 30.1928C7.41237 30.0828 7.50276 30.0057 7.57432 29.9654C7.64589 29.925 7.75135 29.903 7.89071 29.903H7.97357C7.91707 30.1525 7.78901 30.3433 7.59316 30.479H7.93214C7.93214 30.3433 7.9811 30.2515 8.07903 30.2112C8.17696 30.1708 8.24098 30.0828 8.27112 29.9434L7.63459 29.903L7.38224 29.5728C7.26924 29.5471 7.16378 29.5325 7.06585 29.5325H6.7909L6.83233 29.2023L7.12988 28.9125C6.98676 28.9125 6.88883 28.8648 6.83233 28.7694C6.77584 28.674 6.67791 28.6116 6.53479 28.5823C6.76077 28.6116 6.96416 28.63 7.14872 28.6446C7.33327 28.6593 7.53666 28.6813 7.76265 28.707L8.14306 28.4172L7.80408 28.087C7.66095 28.0613 7.51406 28.0393 7.35964 28.0246C7.20521 28.01 7.04326 28.0026 6.87377 28.0026L6.9152 27.6724L7.50653 27.7128L7.54796 27.423L7.88694 27.4633C7.74381 27.4376 7.64589 27.3753 7.58939 27.2762C7.53289 27.1808 7.43497 27.1331 7.29184 27.1331C7.17885 27.2432 7.08092 27.2982 6.99429 27.2982C6.93779 27.2982 6.8813 27.2689 6.8248 27.2139C6.7683 27.1588 6.71181 27.1038 6.65531 27.0488C6.51219 27.0231 6.41426 26.9607 6.35776 26.8617C6.30127 26.7663 6.18827 26.7186 6.01878 26.7186C5.84929 26.7186 5.76643 26.803 5.76643 26.9644C5.42745 26.7993 5.16003 26.6635 4.96041 26.5535C4.76455 26.4434 4.53857 26.238 4.28245 25.9335C4.16946 26.0179 4.0301 26.0912 3.86061 26.1609C3.69112 26.2306 3.60826 26.3334 3.60826 26.4691C3.38227 26.4434 3.23914 26.4287 3.18641 26.4287C3.13368 26.4287 3.08849 26.4141 3.05836 26.3884C3.02822 26.3627 3.00186 26.326 2.97549 26.2857C2.94536 26.2453 2.8625 26.1829 2.71937 26.0986C2.71937 26.1536 2.71184 26.216 2.69678 26.2857C2.68171 26.3554 2.67418 26.4177 2.67418 26.4728C2.67418 26.6122 2.69678 26.7149 2.73821 26.7809C2.77964 26.8506 2.84367 26.924 2.9303 27.0084C2.90016 27.0634 2.85873 27.1111 2.80224 27.1515C2.74574 27.1918 2.68924 27.1882 2.63275 27.1295V27.2946C2.48962 27.2652 2.38416 27.1992 2.31636 27.0891C2.2448 26.9791 2.13934 26.924 1.99998 26.924L1.49151 26.304L1.1111 26.5535C1.05461 26.4985 0.998108 26.4361 0.941612 26.3664C0.885115 26.2967 0.854983 26.2233 0.854983 26.1389C0.854983 26.0545 0.870049 25.9885 0.896414 25.9335H1.19396C1.36345 25.9335 1.55931 25.9628 1.7853 26.0179L1.82673 25.6877C1.71373 25.5483 1.63087 25.4675 1.57061 25.4419C1.51411 25.4162 1.40112 25.4015 1.23163 25.4015L1.1902 25.6473L0.553668 25.607L0.892648 25.9371L0.553668 25.8968C0.553668 26.0876 0.497171 26.1866 0.384178 26.1866H0.214687L0.297549 25.2804H0C0.0263651 25.2548 0.0790954 25.2107 0.146891 25.1557C0.214687 25.1007 0.267418 25.086 0.293783 25.1154C0.320148 25.0897 0.335214 25.0456 0.335214 24.9906L1.26553 25.075V24.9906C1.26553 24.7155 1.20903 24.5357 1.09604 24.455C0.983043 24.3706 0.854983 24.2495 0.715625 24.0844C0.74199 23.8937 0.757056 23.6515 0.757056 23.3617C0.757056 23.0719 0.885115 22.9288 1.13747 22.9288C1.27683 22.9288 1.38982 22.9435 1.47645 22.9692C1.55931 23.0535 1.6723 23.0939 1.81543 23.0939C1.92842 23.0939 2.03388 23.0866 2.13181 23.0719C2.22974 23.0572 2.3352 23.0499 2.44819 23.0499C2.56118 23.0499 2.70808 23.0902 2.89263 23.1746C3.07719 23.259 3.16758 23.3654 3.16758 23.5048C3.16758 23.5598 3.13745 23.6002 3.08472 23.6295C3.02822 23.6589 2.97173 23.6846 2.91523 23.7139C3.00186 23.7139 3.08472 23.7212 3.16758 23.7359C3.25421 23.7506 3.33707 23.7579 3.41993 23.7579C3.5028 23.7579 3.54799 23.6625 3.54799 23.4681C3.4915 23.4131 3.46136 23.358 3.46136 23.303C3.51786 23.303 3.54799 23.248 3.54799 23.1379H3.88697C3.88697 23.3324 3.9849 23.4534 4.18452 23.5085V23.1783L3.88697 23.1379C3.9736 23.1122 4.07153 23.0756 4.18452 23.0352C4.29752 22.9948 4.39544 22.9728 4.48207 22.9728C4.67793 22.9728 4.80599 22.9875 4.86248 23.0132V23.1379C4.86248 23.248 4.94911 23.303 5.1186 23.303H5.45758C5.70993 22.9178 5.99242 22.727 6.30503 22.727C6.44439 22.727 6.59505 22.7344 6.74947 22.749C6.9039 22.7637 7.03949 22.7711 7.15248 22.7711C7.29184 22.7711 7.35587 22.6537 7.34457 22.4189C7.32951 22.1841 7.37847 22.041 7.49146 21.986L7.83044 21.7401C7.85681 21.7145 7.84551 21.6594 7.78901 21.5751C7.73252 21.4907 7.66095 21.3953 7.57809 21.2852C7.49146 21.1752 7.4086 21.0578 7.32574 20.9367C7.23911 20.812 7.19768 20.7092 7.19768 20.6285V20.5038C7.31067 20.5038 7.4086 20.5111 7.49523 20.5258C7.58186 20.5405 7.67978 20.5478 7.79278 20.5478C7.79278 20.4928 7.78524 20.4304 7.77018 20.3607C7.75511 20.291 7.74758 20.2286 7.74758 20.1736C7.74758 20.0379 7.86057 19.9682 8.08656 19.9682H8.84738L8.88881 19.6783H8.97168C9.1148 19.6783 9.26169 19.6563 9.41612 19.616C9.57054 19.5756 9.71743 19.5279 9.86056 19.4729C9.88692 19.4986 9.93212 19.5426 9.98862 19.5976C10.0451 19.6527 10.1016 19.6673 10.1581 19.638V19.8031C9.96225 19.8031 9.83419 19.8178 9.7777 19.8434C9.7212 19.8728 9.62327 19.9388 9.48015 20.0489C9.6195 20.0746 9.7551 20.0966 9.88316 20.1112C10.0112 20.1259 10.0752 20.214 10.0752 20.3791C10.0752 20.4891 10.0677 20.5918 10.0526 20.6872C10.0376 20.7826 10.03 20.8853 10.03 20.9954C9.69107 20.9404 9.44625 20.8633 9.28806 20.7679C9.13363 20.6726 8.98298 20.6102 8.84362 20.5808L8.80219 20.8707L9.43871 20.9514C9.35585 21.0064 9.38222 21.1422 9.52158 21.3623C9.66094 21.5824 9.7325 21.7475 9.7325 21.8575C9.81913 21.9676 9.83796 22.0703 9.79653 22.1657C9.7551 22.2611 9.78899 22.3638 9.90199 22.4739C10.0978 22.4189 10.2975 22.3785 10.4933 22.3492C10.6892 22.3235 10.8888 22.3088 11.0847 22.3088C11.2541 22.3088 11.4236 22.3161 11.5931 22.3308C11.7626 22.3455 11.9321 22.3638 12.1016 22.3932L12.0602 22.683H11.8492C11.7626 22.683 11.7212 22.7197 11.7212 22.7857V22.9728C11.8605 23.0022 12.0187 23.0205 12.1882 23.0352C12.3577 23.0499 12.5121 23.0572 12.6553 23.0572V22.727L13.2918 22.8077L13.2504 23.0976H12.9528L12.9114 23.3874L13.2504 23.4278C13.3897 23.292 13.5479 23.215 13.7174 23.2003C13.8869 23.1856 14.0413 23.1122 14.1844 22.9728C14.5234 22.9472 14.8963 22.9508 15.3068 22.9948C15.7174 23.0352 15.9923 23.1379 16.1317 23.303L16.2598 23.4278H16.1317C16.0752 23.4278 16.0451 23.4424 16.0451 23.4681L16.1317 23.5928L16.4707 23.347L16.5121 23.0572C16.708 23.0572 16.9076 23.0646 17.1034 23.0792C17.2993 23.0939 17.4989 23.1012 17.6948 23.1012L18.0337 23.3911C18.1467 23.4167 18.3313 23.4314 18.5836 23.4314C18.6401 23.5415 18.7155 23.6772 18.8172 23.8423C18.9151 24.0074 19.0356 24.1028 19.1787 24.1321L19.1373 24.422L18.7983 24.3816C18.8247 24.466 18.7833 24.5064 18.6703 24.5064C18.5008 24.5064 18.3238 24.4807 18.1392 24.4256C17.9547 24.3706 17.7663 24.3303 17.5667 24.3009C17.5931 24.411 17.5818 24.6054 17.5253 24.8769C17.6081 24.8219 17.6872 24.7668 17.7588 24.7118C17.8304 24.6568 17.9208 24.6311 18.0337 24.6311H18.2032C18.3162 24.7705 18.4857 24.9356 18.7117 25.1264C18.9377 25.3171 19.0356 25.4822 19.0093 25.6216V25.662L18.9678 25.6216C18.7155 25.6216 18.546 25.7647 18.4594 26.0545C18.3727 26.3444 18.3162 26.5828 18.2899 26.7773C18.0639 26.7516 17.8454 26.7222 17.6345 26.6966C17.4236 26.6709 17.2466 26.5461 17.1072 26.326L15.4989 26.902L15.5404 26.5718L14.9905 25.9115L15.0055 25.8931ZM0.444441 24.0808C0.387944 24.0808 0.323914 24.0734 0.252352 24.0588C0.180789 24.0441 0.146891 23.9964 0.146891 23.9157C0.146891 23.8607 0.161957 23.8056 0.188322 23.7506L0.440674 24.0808H0.444441ZM2.39169 26.0582L2.13934 25.728H2.05271C1.93972 25.728 1.85686 25.8234 1.80036 26.0179L2.39169 26.0582ZM3.28058 26.7589L3.57812 26.7993C3.54799 26.825 3.50656 26.8617 3.45007 26.902C3.39357 26.9424 3.33707 26.9644 3.28058 26.9644V26.7589ZM5.22783 26.0179L4.93028 25.6877C4.90015 25.7427 4.87378 25.7977 4.84365 25.8528C4.81352 25.9078 4.80222 25.9628 4.80222 26.0179C4.80222 26.0435 4.81729 26.0582 4.84365 26.0582C4.90015 26.0582 4.96418 26.0509 5.03574 26.0362C5.1073 26.0215 5.17133 26.0142 5.22783 26.0142M6.62518 27.6247L6.92273 27.6651L6.8813 27.9953L6.58375 27.9549L6.62518 27.6247ZM7.13365 25.607L7.17508 25.2768H7.00559C6.8926 25.2768 6.8361 25.3722 6.8361 25.5666L7.13365 25.607ZM10.7758 16.7837C10.7457 17.0882 10.7042 17.3964 10.6477 17.7119C10.5912 18.0274 10.4632 18.3099 10.2673 18.5557L9.92835 18.8859L9.6308 18.8455C9.6308 18.9556 9.62327 19.051 9.60821 19.1354C9.59314 19.2161 9.58561 19.3151 9.58561 19.4252C9.33325 19.3995 9.15623 19.3775 9.0583 19.3628C8.96038 19.3482 8.82478 19.2601 8.65529 19.095C8.65529 19.2344 8.69672 19.2748 8.78335 19.2198L8.65529 19.3445L7.9359 19.3041C8.13176 19.1684 8.21085 19.0143 8.16942 18.8492C8.12799 18.6841 8.20332 18.519 8.40294 18.3539C8.34645 18.2989 8.32385 18.2439 8.33891 18.1888C8.35398 18.1338 8.38788 18.0788 8.44437 18.0238C8.50087 17.9687 8.5649 17.9064 8.63646 17.8367C8.70802 17.7669 8.74192 17.6936 8.74192 17.6092C8.54607 17.5835 8.44437 17.4734 8.44437 17.279V17.1139H8.40294C8.28995 17.1139 8.20709 17.0479 8.15059 16.9085L8.78335 16.9929L8.82478 16.6627L8.4858 16.6223C8.37281 16.5122 8.29372 16.4352 8.25229 16.3949C8.21085 16.3545 8.10539 16.3325 7.9359 16.3325L9.80029 16.4572C10.0526 16.5966 10.2033 16.6847 10.2447 16.725C10.2862 16.7654 10.4632 16.7874 10.7758 16.7874M8.23345 31.7484V31.5026L7.9359 31.4622L8.23345 31.752V31.7484ZM8.32008 29.6058H8.36151C8.55737 29.6609 8.65906 29.5802 8.65906 29.3564C8.48957 29.3307 8.39164 29.3013 8.36151 29.2757C8.33138 29.25 8.33138 29.1509 8.36151 28.9858C8.33138 29.1766 8.30501 29.294 8.27865 29.3344C8.24852 29.3747 8.16566 29.4518 8.0263 29.5618C8.08279 29.5912 8.18072 29.6022 8.32385 29.6022M8.06396 33.8505H8.19202C8.10539 33.7662 8.06396 33.6598 8.06396 33.5203V33.8505ZM8.57243 15.7528V15.8776C8.57243 15.9326 8.55737 15.9619 8.531 15.9619C8.47451 15.9363 8.42554 15.8996 8.38411 15.8592C8.34268 15.8189 8.29372 15.7712 8.23722 15.7161L8.86998 15.7969L8.57243 15.7565V15.7528ZM8.91141 26.6379L8.27488 26.5975L8.23345 26.9277H8.57243L8.61386 26.5975L8.91141 26.6379ZM8.48957 39.9553L8.82855 40.3258C8.68543 40.3001 8.59503 40.2781 8.5536 40.2634C8.51217 40.2487 8.48957 40.1754 8.48957 40.036V39.9516V39.9553ZM8.61386 15.4226L8.91141 15.463C8.93778 15.4373 8.95284 15.3786 8.95284 15.2979C8.95284 15.2172 8.91895 15.1328 8.84738 15.0521C8.77582 14.9714 8.71179 14.9017 8.65529 14.8467H8.69673C8.80972 14.8723 8.97168 14.8393 9.1826 14.7439C9.39352 14.6485 9.55548 14.6119 9.66847 14.6412H10.0489C10.1355 14.9164 10.2523 15.1768 10.4105 15.4263C10.5649 15.6721 10.7005 15.9363 10.8135 16.2077C10.5611 16.0977 10.2259 16.0647 9.81913 16.105C9.40858 16.1454 9.0922 16.1417 8.86621 16.083C8.86621 15.9179 8.85115 15.8005 8.82478 15.7308C8.79465 15.6611 8.72686 15.5584 8.61386 15.4226ZM8.70049 25.728L8.65906 26.0582H8.95661L8.99804 25.728H8.70049ZM9.0809 17.2753C9.02441 17.2753 8.96791 17.268 8.91141 17.2533C8.85492 17.2387 8.81349 17.2056 8.78335 17.1506V17.2753H9.0809ZM8.91141 29.6462V29.8516C8.91141 29.936 8.94531 29.9764 9.01687 29.9764C9.08844 29.9764 9.1487 29.9911 9.20896 30.0167L9.25039 29.6866L8.91141 29.6462ZM9.16376 37.5633L9.12233 38.1833L9.46131 38.2236L9.50274 37.6073L9.16376 37.5669V37.5633ZM9.58937 36.4076L9.54794 36.6974L9.88692 36.7378V36.5727C9.88692 36.4626 9.78899 36.4076 9.58937 36.4076ZM9.67224 35.5014L9.6308 35.8316L9.96978 35.872L10.0112 35.5418L9.67224 35.5014ZM9.88316 19.2161L10.1807 19.4656H9.88316V19.2161ZM9.92835 25.8124C9.98485 25.7867 10.0677 25.75 10.1807 25.7097C10.2937 25.6693 10.3916 25.6473 10.4783 25.6473C10.5348 25.6473 10.5988 25.6767 10.6703 25.728C10.7419 25.7831 10.8022 25.8381 10.8624 25.8931C10.7758 25.8381 10.7005 25.75 10.6289 25.6253C10.5574 25.5006 10.5385 25.3868 10.5649 25.2731C10.4218 25.4125 10.3238 25.4932 10.2673 25.5189C10.2108 25.5446 10.0978 25.5446 9.92835 25.5189V25.8087V25.8124ZM11.3671 26.8837L11.4086 26.5535L11.7061 26.5938C11.4801 26.5938 11.3671 26.6892 11.3671 26.8837ZM13.1035 42.1785L12.8511 42.1381L12.8097 42.4683L13.1072 42.1785H13.1035ZM14.1166 24.3669V24.0771L13.7777 24.0368L14.1166 24.3669ZM14.836 39.9112L14.5385 39.8709C14.5648 39.9002 14.61 39.9516 14.6665 40.036C14.723 40.1203 14.7795 40.1607 14.836 40.1607V39.9149V39.9112ZM15.4311 25.3171C15.288 25.1814 15.1901 25.097 15.1336 25.0713C15.0771 25.0456 14.9641 25.0163 14.7946 24.9869V25.2768C14.9641 25.2768 15.0696 25.3061 15.111 25.3612C15.1524 25.4162 15.2428 25.5116 15.3859 25.651L15.4274 25.3208L15.4311 25.3171ZM16.2748 25.3978C16.3012 25.2328 16.3727 25.0823 16.4857 24.9429C16.5987 24.8072 16.6703 24.6421 16.6967 24.4476H16.61C16.497 24.4476 16.4142 24.5027 16.3577 24.6127C16.3012 24.7228 16.2033 24.7778 16.0601 24.7778L15.9773 25.3978H16.2748ZM17.8869 37.4385L17.2955 37.3982V37.7283H17.5064C17.7588 37.7283 17.8869 37.633 17.8869 37.4385ZM18.2673 36.6131L17.9697 36.8185L18.6062 36.9029V36.6571L18.2673 36.6167V36.6131ZM18.6477 39.6251L18.6891 39.3352C18.5761 39.3646 18.4631 39.3683 18.3501 39.3573C18.2371 39.3426 18.1392 39.3242 18.0526 39.2949C18.1656 39.4343 18.2409 39.5223 18.2861 39.5627C18.3275 39.6031 18.4481 39.6251 18.6477 39.6251ZM18.4368 38.4291V38.5538H18.4782C18.5347 38.5538 18.5761 38.5758 18.6062 38.6162C18.6326 38.6565 18.6778 38.6932 18.7343 38.7189L18.7757 38.4291H18.4368Z" fill="#111F43"/>
<path d="M27.7211 42.964C27.3558 42.6632 27.0168 42.6632 26.7042 42.964C26.561 42.6632 26.4631 42.4834 26.4066 42.4284C26.3501 42.3734 26.2221 42.344 26.0262 42.344V42.6338L25.7287 42.964C25.5592 42.7989 25.4876 42.7182 25.5177 42.7182C25.5479 42.7182 25.4048 42.7989 25.0959 42.964C25.0959 42.7989 25.0808 42.6889 25.0545 42.6338C25.0243 42.5788 24.9113 42.4834 24.7155 42.344H25.3935V41.9735C25.2503 41.9735 25.1034 41.9588 24.949 41.9331C24.7946 41.9074 24.7155 41.8231 24.7155 41.6873C24.8021 41.5222 24.8511 41.3094 24.8624 41.049C24.8774 40.7885 24.8624 40.506 24.821 40.2052C24.7795 39.9043 24.723 39.5998 24.6515 39.299C24.5799 38.9982 24.5046 38.723 24.4179 38.4735C24.5573 38.4735 24.6439 38.4589 24.6703 38.4332C24.6967 38.4075 24.7117 38.3231 24.7117 38.1874H25.0921C25.2315 37.9966 25.3181 37.8719 25.3445 37.8168C25.3709 37.7618 25.3859 37.6664 25.3859 37.527C25.2428 37.527 25.0469 37.4573 24.7946 37.3216C24.5422 37.1858 24.4142 37.0464 24.4142 36.9107L24.7117 36.5401C24.5987 36.5401 24.5159 36.3897 24.4594 36.0852C24.4292 35.9752 24.4179 35.8247 24.4179 35.6303C24.5573 35.4652 24.6439 35.3551 24.6703 35.3001C24.6967 35.2451 24.7117 35.1203 24.7117 34.9296H24.4142H25.0921C24.8925 34.6287 24.7795 34.4893 24.7532 34.5187C24.723 34.548 24.7117 34.4783 24.7117 34.3132C24.5686 34.3132 24.5347 34.2986 24.6063 34.2729C24.6778 34.2472 24.7117 34.1628 24.7117 34.0271V33.6565H25.0921V33.3667C24.8925 33.2016 24.7795 33.0916 24.7532 33.0365C24.723 32.9815 24.7117 32.8861 24.7117 32.7467V32.3762H24.4142V32.0863H25.0921C25.0921 31.9212 25.0432 31.8112 24.9452 31.7562C24.8473 31.7011 24.8963 31.6057 25.0921 31.4663C24.8925 31.4663 24.7306 31.3966 24.6063 31.2609C24.4782 31.1251 24.4142 30.96 24.4142 30.7656C24.5535 30.7656 24.6063 30.8133 24.5611 30.9087C24.5196 31.0041 24.5686 30.9564 24.708 30.7656C24.5648 30.6299 24.482 30.5345 24.4556 30.4758C24.4255 30.4207 24.4142 30.3107 24.4142 30.1456H24.7117C24.9076 30.1456 25.0206 30.1309 25.0507 30.1052C25.0771 30.0796 25.0921 29.9952 25.0921 29.8594C24.8925 29.8594 24.7532 29.9071 24.6703 30.0025C24.5837 30.0979 24.3878 30.1456 24.079 30.1456V29.1991L24.4179 28.8689C24.5573 29.034 24.7193 29.1294 24.9038 29.1587C25.0884 29.1844 25.2503 29.1991 25.3897 29.1991V28.8689H25.0921C24.8925 28.7331 24.7306 28.6708 24.6063 28.6818C24.4782 28.6965 24.4142 28.5387 24.4142 28.2085C24.4405 28.2085 24.4857 28.1938 24.5422 28.1682C24.6552 28.1131 24.7117 28.0324 24.7117 27.9224C24.5686 27.7573 24.4292 27.6876 24.2899 27.7169C24.1468 27.7463 24.079 27.5922 24.079 27.262C24.2485 27.262 24.3464 27.2473 24.3765 27.2216C24.4029 27.196 24.4179 27.1116 24.4179 26.9758C24.5573 27.1152 24.61 27.196 24.5648 27.2216C24.5234 27.251 24.5724 27.262 24.7117 27.262C24.9076 27.1263 25.0206 27.0749 25.0507 27.1189C25.0771 27.1593 25.0921 27.1116 25.0921 26.9758V26.6053C24.8925 26.6053 24.7155 26.5906 24.5611 26.5649C24.4066 26.5393 24.2447 26.4549 24.0752 26.3191L24.4142 25.989L24.7117 25.6991C24.6251 25.534 24.5987 25.3689 24.6251 25.2039C24.6515 25.0388 24.6891 24.881 24.7306 24.7306C24.772 24.5802 24.8021 24.4224 24.8172 24.2573C24.8323 24.0922 24.7946 23.9271 24.7117 23.7621C24.8812 23.6777 25.0017 23.597 25.0733 23.5162C25.1449 23.4319 25.2014 23.3365 25.2428 23.2264C25.2842 23.1164 25.3332 22.999 25.3897 22.8742C25.4462 22.7495 25.5592 22.6064 25.7287 22.4413C25.7287 22.6064 25.7626 22.7238 25.8341 22.7898C25.9057 22.8596 25.981 22.9146 26.0676 22.9549C26.1543 22.9953 26.2296 23.043 26.3012 23.098C26.369 23.153 26.4066 23.2631 26.4066 23.4282V23.7584C26.546 23.8978 26.6891 24.0042 26.8285 24.0886C26.9678 24.1729 27.0394 24.3784 27.0394 24.7086C27.1787 25.0131 27.1599 25.3139 26.9754 25.6147C26.7908 25.9192 26.7004 26.1504 26.7004 26.3155C27.0093 26.3155 27.1938 26.3558 27.2503 26.4402C27.3068 26.5209 27.3369 26.7961 27.3369 27.2657C27.1938 27.4308 27.0545 27.5958 26.9151 27.7609C26.772 27.926 26.7042 28.0764 26.7042 28.2159H27.3407C27.3407 28.3809 27.3256 28.4983 27.2993 28.5644C27.2691 28.6341 27.2352 28.6891 27.1938 28.7295C27.1524 28.7698 27.1147 28.8175 27.0884 28.8726C27.0582 28.9276 27.0469 29.0376 27.0469 29.2027C27.1863 29.2027 27.288 29.2651 27.3445 29.3898C27.401 29.5146 27.529 29.6723 27.7249 29.8631C27.529 29.8631 27.416 29.8778 27.3859 29.9035C27.3558 29.9328 27.3445 30.0135 27.3445 30.1493H28.3614C28.1919 30.0135 28.094 29.9145 28.0639 29.8594C28.0337 29.8044 28.0224 29.6797 28.0224 29.4889H28.7004C28.8397 29.6797 28.9264 29.742 28.9527 29.676C28.9791 29.6063 28.9942 29.6687 28.9942 29.8631C28.851 29.8631 28.7682 29.8778 28.7381 29.9035C28.7117 29.9328 28.6966 30.0135 28.6966 30.1493H29.3746V29.8594L28.9942 29.4889C29.19 29.4889 29.3181 29.4265 29.3746 29.3018C29.4311 29.1771 29.529 29.034 29.6721 28.8689H29.3746C29.3746 28.7331 29.3106 28.6818 29.1825 28.7258C29.0544 28.7662 28.9904 28.7185 28.9904 28.5827C29.3294 28.5827 29.6307 28.4947 29.9019 28.3149C30.1693 28.1351 30.3049 27.8967 30.3049 27.5922C30.1618 27.7573 30.0073 27.7976 29.8379 27.7169C29.6684 27.6362 29.5139 27.5922 29.3708 27.5922V27.262C29.5102 27.1263 29.5742 27.0419 29.5629 27.0162C29.5478 26.9905 29.6985 26.9758 30.0073 26.9758H30.6853V26.6053H30.3049C30.5008 26.4696 30.6137 26.3705 30.6439 26.3155C30.6702 26.2604 30.6853 26.1504 30.6853 25.9853H30.3049C30.6439 25.6551 31.0318 25.4643 31.4687 25.4093C31.9056 25.3543 32.2936 25.3249 32.6326 25.3249V25.0351C32.8021 25.0351 32.9489 25.0204 33.077 24.9947C33.2051 24.9691 33.2691 24.87 33.2691 24.7049H32.9715C32.8021 24.7049 32.7041 24.6902 32.674 24.6646C32.6439 24.6389 32.6326 24.5545 32.6326 24.4151H32.9715C33.3105 24.4151 33.642 24.3527 33.9659 24.2316C34.2898 24.1069 34.6212 24.0445 34.9602 24.0445C34.9602 23.7437 34.9226 23.5493 34.8548 23.4686C34.7832 23.3878 34.9188 23.2631 35.2578 23.098C35.3444 23.0136 35.4273 22.988 35.5139 23.0136C35.5968 23.043 35.6758 23.076 35.7474 23.1164C35.819 23.1567 35.8943 23.1861 35.9809 23.2007C36.0676 23.2154 36.1504 23.1787 36.2333 23.098C36.2333 22.9623 36.2182 22.8632 36.1919 22.8082C36.1617 22.7532 36.0638 22.6284 35.8943 22.4376H36.2333C36.3161 22.3533 36.4103 22.3276 36.5082 22.3533C36.6062 22.3826 36.7041 22.4156 36.8058 22.456C36.9037 22.4963 37.0092 22.5257 37.1222 22.5404C37.2352 22.555 37.3745 22.5184 37.544 22.4376C37.544 22.7678 37.6721 23.0723 37.9244 23.3438C38.1768 23.619 38.3915 23.7547 38.5609 23.7547C38.7003 23.5896 38.802 23.4942 38.8585 23.4649C38.915 23.4392 39.0431 23.4245 39.2389 23.4245V23.7547C39.1523 23.8354 39.0958 23.9455 39.0694 24.0849C39.0393 24.2243 39.028 24.3747 39.028 24.5398C39.028 24.7049 39.0205 24.8553 39.0054 24.9947C38.9903 25.1341 38.9414 25.2405 38.8585 25.3249C38.689 25.3249 38.5459 25.2846 38.4367 25.2002C38.35 25.1452 38.2822 25.0901 38.2257 25.0351C38.2257 25.1745 38.2107 25.2552 38.1843 25.2846C38.1542 25.3102 38.0713 25.3249 37.932 25.3249C38.0713 25.5157 38.2144 25.6881 38.3538 25.8385C38.4932 25.989 38.5647 26.1467 38.5647 26.3118L38.2257 26.6016C38.0826 26.4659 37.9207 26.3815 37.7399 26.3558C37.5553 26.3301 37.3933 26.3155 37.254 26.3155C36.9414 26.4549 36.6024 26.5356 36.2371 26.5613C35.8717 26.5906 35.4461 26.6016 34.9678 26.6016V26.9722L34.5873 27.262L34.2898 26.9722H33.9508V27.262C33.8077 27.4271 33.7098 27.4821 33.6533 27.4271C33.5968 27.3721 33.4687 27.4271 33.2729 27.5922H33.9508C33.8077 27.7573 33.7098 27.9003 33.6533 28.0251C33.5968 28.1498 33.4687 28.2122 33.2729 28.2122C33.1297 28.0764 32.9753 27.9921 32.8058 27.9664C32.6363 27.937 32.4819 27.926 32.3388 27.926C32.2559 27.926 32.1844 27.9407 32.1279 27.9664C32.0149 28.0214 31.9584 28.1058 31.9584 28.2122C31.9584 28.3773 31.981 28.4947 32.0224 28.5607C32.0638 28.6304 32.109 28.6854 32.1505 28.7258C32.1919 28.7662 32.2333 28.8139 32.2785 28.8689C32.3199 28.9239 32.3425 29.034 32.3425 29.1991H33.2729V29.4889C33.0469 29.4889 32.9 29.4962 32.8284 29.5109C32.7569 29.5256 32.723 29.5513 32.723 29.5953C32.723 29.6393 32.7305 29.698 32.7456 29.7824C32.7606 29.8668 32.723 29.9878 32.6401 30.1529H31.9621C31.9621 30.208 31.9471 30.263 31.9207 30.318C31.8642 30.4281 31.7663 30.4831 31.6232 30.4831C31.6232 30.6225 31.5591 30.6665 31.4311 30.6262C31.303 30.5858 31.1561 30.6335 30.9866 30.7693C31.1561 30.9637 31.2691 31.0848 31.3256 31.1398C31.3821 31.1948 31.48 31.3049 31.6232 31.47H30.9866V31.7598C30.8435 31.7598 30.7456 31.8149 30.6891 31.9249C30.6326 32.035 30.5045 32.09 30.3087 32.09C30.3087 31.9249 30.3576 31.8295 30.4556 31.8002C30.5535 31.7745 30.5045 31.7598 30.3087 31.7598C30.1655 31.9249 30.0111 31.9799 29.8416 31.9249C29.6721 31.8699 29.5177 31.9249 29.3746 32.09C29.4311 32.145 29.4725 32.2001 29.5026 32.2551C29.529 32.3358 29.4876 32.3798 29.3746 32.3798V32.7504L29.6721 33.0402V33.3704H29.3746C29.2917 33.4254 29.2202 33.4951 29.1637 33.5758C29.0507 33.7409 28.9942 33.8913 28.9942 34.0307C29.077 34.0307 29.1298 34.0087 29.1411 33.9684C29.1561 33.928 29.1637 33.8987 29.1637 33.884C29.1637 33.8693 29.1787 33.8693 29.2051 33.884C29.2315 33.8987 29.2917 33.9464 29.3746 34.0271C29.3746 34.1665 29.2616 34.2729 29.0356 34.3573C28.8096 34.4416 28.6966 34.6324 28.6966 34.9332H28.9942C28.9942 34.7975 29.0092 34.7278 29.0356 34.7278C29.062 34.7278 29.175 34.7975 29.3746 34.9332V35.3038H28.9942C28.9942 35.113 28.9301 35.0653 28.8021 35.1607C28.674 35.2561 28.5271 35.3038 28.3576 35.3038L28.0187 35.634H28.9904C28.8473 35.7734 28.7494 35.8541 28.6929 35.8798C28.6364 35.9091 28.5234 35.9201 28.3539 35.9201V36.5401C28.1844 36.4044 28.0375 36.4558 27.9094 36.7052C27.7814 36.951 27.7173 37.2262 27.7173 37.5307C27.8605 37.3656 27.9433 37.3509 27.9697 37.4903C27.9961 37.6297 28.0111 37.8609 28.0111 38.1911C27.868 38.3305 27.7211 38.5359 27.5667 38.8111C27.4123 39.0862 27.3332 39.2917 27.3332 39.4311C27.529 39.6218 27.642 39.6842 27.6722 39.6145C27.6985 39.5448 27.7136 39.6072 27.7136 39.8016C27.5177 40.1061 27.465 40.4216 27.5667 40.7481C27.6646 41.0783 27.7136 41.3938 27.7136 41.6947C27.7136 41.8341 27.6496 41.9295 27.5215 41.9845C27.3934 42.0395 27.3294 42.1643 27.3294 42.355H27.7098V42.975L27.7211 42.964ZM25.3935 34.9222H25.7324V34.6324C25.5629 34.7718 25.465 34.8195 25.4349 34.7755C25.4048 34.7351 25.3935 34.7828 25.3935 34.9186M26.0262 35.2964H25.7287V35.6266H26.0262V35.2964ZM27.0432 33.6455H27.7211V33.3557H27.0432V33.6455ZM27.7211 30.7583V31.1288H28.3576V30.7583H27.7211ZM28.6929 28.8615C28.5234 28.8615 28.4254 28.8762 28.3953 28.9019C28.3652 28.9312 28.3539 29.0266 28.3539 29.1917V28.8615H28.0149C28.1844 28.8615 28.2823 28.8469 28.3124 28.8212C28.3388 28.7955 28.3539 28.7111 28.3539 28.5754C28.5234 28.7148 28.6213 28.7625 28.6514 28.7185C28.6778 28.6781 28.6929 28.7258 28.6929 28.8615ZM30.3011 33.0292L30.0036 32.7394C30.1429 32.7394 30.2296 32.754 30.2559 32.7797C30.2823 32.8091 30.2974 32.8898 30.2974 33.0255M30.3011 32.3688H31.3181V32.7394H30.3011V32.3688ZM30.9791 27.5848V28.8615V28.5717C31.1486 28.5717 31.2465 28.557 31.2766 28.5314C31.303 28.5057 31.3181 28.3956 31.3181 28.2012V27.9114L30.9791 27.5812V27.5848ZM30.9791 29.4816V30.1419C31.1486 30.1419 31.2616 30.0942 31.3181 29.9988C31.3746 29.9035 31.4725 29.8558 31.6156 29.8558V29.4852H30.9791V29.4816ZM31.6156 25.9779V26.3081C31.6156 26.4475 31.6307 26.5283 31.6571 26.5539C31.6834 26.5833 31.7851 26.5943 31.9546 26.5943C32.1241 26.5943 32.2371 26.5539 32.2936 26.4696C32.3199 26.4145 32.335 26.3595 32.335 26.3045C32.1392 26.1394 32.0111 26.044 31.9546 26.0146C31.8981 25.989 31.7851 25.9743 31.6156 25.9743M32.9678 26.5943C32.7983 26.5943 32.7004 26.609 32.6702 26.6346C32.6401 26.664 32.6288 26.7741 32.6288 26.9648H32.9678C32.9678 26.7741 32.9828 26.664 33.0092 26.6346C33.0356 26.609 33.1222 26.5943 33.2616 26.5943H32.964H32.9678ZM32.9678 27.2547C32.7983 27.2547 32.7004 27.2693 32.6702 27.295C32.6401 27.3244 32.6288 27.4197 32.6288 27.5848H33.2653V27.2547H32.9678ZM32.9678 28.8615C32.7983 28.8615 32.7004 28.8469 32.6702 28.8212C32.6401 28.7955 32.6288 28.7111 32.6288 28.5754C32.6288 28.6854 32.6853 28.7662 32.7983 28.8212C32.8548 28.8505 32.9113 28.8615 32.9678 28.8615ZM33.2653 28.5754C33.1222 28.5754 33.0393 28.5607 33.013 28.535C32.9828 28.5093 32.9715 28.3993 32.9715 28.2048L33.2691 28.5754H33.2653ZM33.2653 24.0409V23.751C33.4612 23.751 33.5892 23.7657 33.6457 23.7914C33.7022 23.8207 33.8002 23.9015 33.9433 24.0372H33.2653V24.0409ZM34.2823 25.3176C34.1693 25.3176 34.0563 25.3323 33.9433 25.3579C33.7474 25.413 33.6457 25.523 33.6457 25.6881C33.7851 25.8275 33.8868 25.9082 33.9433 25.9339C33.9998 25.9596 34.1128 25.9743 34.2823 25.9743L34.9602 25.3139C34.8736 25.3139 34.8171 25.3359 34.7907 25.3763C34.7606 25.4166 34.7493 25.446 34.7493 25.4607C34.7493 25.4753 34.7418 25.4753 34.7267 25.4607C34.7116 25.446 34.6627 25.3983 34.5798 25.3176H34.2823ZM34.2823 23.4209H33.9433V23.0907H34.2823V23.4209ZM34.576 23.0907C34.576 23.2558 34.561 23.3108 34.5346 23.2558C34.5083 23.2007 34.4216 23.2558 34.2823 23.4209V23.0907H34.5798H34.576ZM36.2295 25.6881V25.9779C36.2295 26.143 36.3086 26.2384 36.463 26.2678C36.6175 26.2971 36.7644 26.3081 36.9075 26.3081V25.9779C36.7644 25.9779 36.6664 25.9303 36.6099 25.8349C36.5534 25.7395 36.4254 25.6918 36.2295 25.6918M36.9075 22.8009H36.6099C36.6099 22.9403 36.625 22.988 36.6514 22.9439C36.6777 22.9036 36.7644 22.9513 36.9037 23.087V22.7972L36.9075 22.8009ZM38.8547 26.3081V25.9779C39.0506 25.9779 39.1146 25.9926 39.0468 26.0183C38.9753 26.0477 39.0393 26.143 39.2389 26.3081H38.8585H38.8547Z" fill="#111F43"/>
<path d="M59.0726 30.758C59.242 30.758 59.34 30.8754 59.3701 31.1102C59.3965 31.345 59.4115 31.5138 59.4115 31.6238V31.9136C59.4115 31.9687 59.34 31.9943 59.2006 31.9943H59.0726V31.7045C59.0726 31.8696 59.1517 32.0347 59.3061 32.1998C59.4605 32.3649 59.5961 32.5006 59.7091 32.6107C59.5961 32.6657 59.4906 32.7281 59.3927 32.7978C59.2948 32.8675 59.2458 32.9702 59.2458 33.106C59.2458 33.2967 59.3098 33.4912 59.4379 33.682C59.566 33.8764 59.6564 34.0415 59.7129 34.1772C59.6564 34.1772 59.5697 34.1699 59.4605 34.1552C59.3475 34.1405 59.2759 34.1075 59.2496 34.0525C59.2194 34.0782 59.1931 34.1002 59.163 34.1149C59.1366 34.1295 59.1065 34.1515 59.0763 34.1772C59.3588 34.4524 59.4982 34.7532 59.4982 35.0834C59.4982 35.3586 59.4078 35.5383 59.2232 35.619C59.0387 35.7034 58.9483 35.8648 58.9483 36.1143C58.9483 36.3051 58.9897 36.4848 59.0763 36.6499C59.0763 36.7893 59.0688 36.9031 59.0537 36.9985C59.0387 37.0938 58.9746 37.1856 58.8654 37.2663V37.5965C58.9219 37.5708 58.9784 37.5194 59.0349 37.4534C59.0914 37.3837 59.1479 37.3507 59.2044 37.3507C59.2609 37.3507 59.3098 37.38 59.3513 37.435C59.3927 37.4901 59.4417 37.5451 59.4982 37.6001V38.2165C59.3287 38.4109 59.2571 38.5136 59.2872 38.5246C59.3136 38.5393 59.1742 38.5467 58.8654 38.5467V38.8365L59.2044 39.1667H59.5019C59.6413 39.3061 59.7355 39.3648 59.7769 39.3538C59.8183 39.3391 59.8409 39.4308 59.8409 39.6216V39.7867C59.6978 39.7867 59.6074 39.8417 59.566 39.9518C59.5245 40.0618 59.5019 40.1866 59.5019 40.3223V40.403H59.63C59.7731 40.403 59.8409 40.4984 59.8409 40.6928H59.2044C59.2044 40.7479 59.1818 40.8653 59.1404 41.045C59.0989 41.2248 59.05 41.4009 58.9935 41.5807C58.937 41.7604 58.8729 41.9182 58.8014 42.0539C58.7298 42.1933 58.6545 42.2594 58.5679 42.2594V42.5896C58.2854 42.5896 58.018 42.5345 57.7618 42.4245C57.5095 42.3144 57.2383 42.2594 56.9558 42.2594V41.9292L57.2534 41.6394C57.1102 41.6394 56.9859 41.566 56.873 41.4119C56.76 41.2615 56.6733 41.1294 56.6206 41.0194H56.9596V40.6892C56.7637 40.5241 56.6281 40.381 56.5566 40.2563C56.485 40.1315 56.2967 40.0692 55.9841 40.0692C55.9841 39.7683 56.0895 39.5115 56.3005 39.3061C56.5114 39.1006 56.6168 38.8475 56.6168 38.543C56.4737 38.4072 56.3193 38.2935 56.1498 38.2128C55.9803 38.1321 55.8259 38.022 55.6828 37.8826L56.6131 36.9764C56.4699 36.8407 56.3871 36.771 56.3607 36.771C56.3344 36.771 56.2477 36.7013 56.1084 36.5656L55.728 37.0205C55.6413 36.8847 55.5246 36.8554 55.3701 36.9398C55.2157 37.0205 55.0651 37.0645 54.9257 37.0645C54.7298 37.0645 54.5867 37.0938 54.5039 37.1452C54.4172 37.2002 54.308 37.2956 54.1649 37.435V37.7249C54.3042 37.8092 54.3984 37.8423 54.4398 37.8276C54.4813 37.8129 54.5039 37.7872 54.5039 37.7432V37.6185C54.5039 37.5781 54.5302 37.5855 54.5867 37.6405L54.7148 37.435C54.8843 37.5157 54.9973 37.5781 55.0538 37.6221C55.1103 37.6625 55.1592 37.7175 55.2007 37.7872C55.2421 37.8569 55.2835 37.9376 55.3287 38.033C55.3701 38.1284 55.4342 38.2605 55.517 38.4256L55.0952 38.7154H54.7148V38.4256H54.3758V38.2605H54.3344C54.2779 38.2605 54.3005 38.2458 54.3984 38.2201C54.4963 38.1945 54.534 38.1504 54.5039 38.0954C54.5039 38.2862 54.4135 38.4109 54.2289 38.4659C54.0443 38.521 53.8824 38.6054 53.743 38.7117H54.082L54.3796 39.0419L54.8014 39.3318C54.6319 39.4161 54.4775 39.5189 54.3344 39.6399C54.1912 39.7647 54.0368 39.8674 53.8673 39.9481C53.8673 40.2526 53.8447 40.4617 53.8033 40.5865C53.7619 40.7112 53.6677 40.924 53.5283 41.2248H53.8673C53.8673 41.3899 53.7958 41.4743 53.6564 41.4743C53.5698 41.4743 53.4229 41.5293 53.212 41.6394C53.001 41.7494 52.8655 41.7788 52.809 41.7237C52.809 41.9439 52.7525 42.0759 52.6395 42.1163C52.5265 42.1567 52.47 42.2887 52.47 42.5089H52.6395V42.5492C52.6395 42.6299 52.696 42.729 52.809 42.839H52.1724V42.5089H49.2949C49.4644 42.5089 49.5472 42.5896 49.5472 42.7547V42.8354H49.2497V42.5052L48.6998 42.3401L48.2779 42.2997C48.2779 42.1346 48.2629 42.0393 48.2365 42.0099C48.2064 41.9842 48.1084 41.9695 47.9389 41.9695C47.9389 41.8045 47.792 41.7091 47.4945 41.6797C47.197 41.654 46.9785 41.6394 46.8391 41.6394V41.3092H46.1197C46.1197 41.2542 46.0482 41.1991 45.9088 41.1441C45.7657 41.0891 45.6979 41.034 45.6979 40.979C45.6979 40.7882 45.7958 40.6892 45.9955 40.6892C45.7695 40.5534 45.551 40.4984 45.3401 40.5241C45.1292 40.5534 44.9521 40.4984 44.8128 40.359C44.8994 40.304 44.8919 40.2343 44.7902 40.1535C44.6923 40.0692 44.6433 39.9738 44.6433 39.8637C44.6433 39.728 44.6132 39.5335 44.5567 39.2877C44.5002 39.0419 44.4437 38.8475 44.3872 38.7117C43.9653 38.7117 43.7544 38.5063 43.7544 38.0917L43.4569 37.7212C43.6264 37.7212 43.7394 37.6992 43.7958 37.6588C43.8523 37.6185 43.9503 37.5414 44.0934 37.4314C43.7808 37.4314 43.5925 37.3617 43.5209 37.2259C43.4493 37.0902 43.3024 36.9508 43.0765 36.815H42.7375V36.4848C42.8768 36.4848 43.0765 36.4041 43.3288 36.239C43.5812 36.0739 43.7657 35.9492 43.8787 35.8685C43.6829 35.7878 43.5623 35.7254 43.5209 35.6814C43.4795 35.6374 43.4569 35.6117 43.4569 35.597C43.4569 35.5823 43.4267 35.575 43.3702 35.575H42.9484C42.9484 35.4099 42.9107 35.2375 42.8429 35.0614C42.7714 34.8816 42.7073 34.7239 42.6508 34.5881L42.9484 34.2579C43.0049 34.313 43.0614 34.368 43.1179 34.423C43.1744 34.4781 43.2309 34.5074 43.2874 34.5074C43.3439 34.5074 43.3928 34.4817 43.4343 34.423C43.4757 34.368 43.5247 34.313 43.5812 34.2579C43.3552 34.2579 43.1443 34.1626 42.9446 33.9681C42.7488 33.7773 42.6471 33.5682 42.6471 33.3481H42.0106V32.6877H41.9277C41.7582 32.6877 41.6716 32.618 41.6716 32.4823V32.4016H41.374V32.0714H41.5021C41.5586 32.0714 41.6 32.0787 41.6301 32.0934C41.6565 32.1081 41.7017 32.1154 41.7582 32.1154C41.7017 32.2255 41.6716 32.3209 41.6716 32.4052C41.7281 32.4346 41.7846 32.4676 41.8411 32.508C41.8976 32.5483 41.9541 32.5703 42.0106 32.5703V32.6951C42.1537 32.8345 42.293 32.9225 42.4324 32.9629C42.5718 33.0032 42.7412 33.0253 42.9409 33.0253V32.6951H42.3043L42.7262 31.7889C42.8655 31.6532 42.9748 31.4881 43.0426 31.2936C43.1141 31.1029 43.2196 30.9378 43.3589 30.7984H43.0614C42.8919 30.7984 42.7638 30.8791 42.681 31.0442C42.5981 31.2092 42.5115 31.3487 42.4286 31.4551C42.4286 31.2349 42.3156 31.1249 42.0896 31.1249L41.7921 30.7947C41.9315 30.7947 42.0181 30.78 42.0445 30.7543C42.0708 30.7286 42.0859 30.6443 42.0859 30.5085C41.8863 30.0426 41.7883 29.617 41.7883 29.2318H42.4249V28.942L42.0859 28.6118H41.4494C41.4757 28.5568 41.5284 28.4834 41.5962 28.3843C41.6678 28.289 41.7017 28.2119 41.7017 28.1569C41.7017 28.1019 41.664 28.0138 41.5962 27.8891C41.5247 27.7643 41.4757 27.6763 41.4494 27.6213H42.4249C42.5642 27.4855 42.7224 27.3828 42.8919 27.3131C43.0614 27.2434 43.2158 27.1407 43.3589 27.0049C43.4719 27.115 43.5623 27.1957 43.6339 27.2507C43.7055 27.3057 43.826 27.3351 43.9917 27.3351C43.9917 27.5002 43.9427 27.6579 43.8448 27.8084C43.7469 27.9588 43.6979 28.1312 43.6979 28.322C43.8109 28.322 43.9427 28.3367 44.1009 28.3623C44.2554 28.388 44.3345 28.4724 44.3345 28.6081C44.3909 28.6632 44.4211 28.7182 44.4211 28.7732C44.4211 28.8576 44.3571 28.9383 44.229 29.019C44.1009 29.1034 44.0105 29.1695 43.954 29.2245H43.9955C44.1348 29.3639 44.2365 29.4519 44.293 29.4923C44.3495 29.5327 44.4889 29.5547 44.7149 29.5547C44.6885 29.4703 44.6584 29.3896 44.632 29.3052C44.6019 29.2245 44.5906 29.1401 44.5906 29.0594C44.5906 28.9236 44.6169 28.887 44.6772 28.9567C44.7337 29.0264 44.8316 29.0447 44.9747 29.019C45.1141 28.9934 45.2083 29.0961 45.2497 29.3272C45.2911 29.562 45.3213 29.8372 45.3363 30.1527C45.3514 30.4682 45.3778 30.791 45.423 31.1212C45.4644 31.4514 45.5435 31.6972 45.6565 31.8623C45.7393 31.9723 45.7544 32.0897 45.6979 32.2145C45.6414 32.3392 45.5623 32.4676 45.4644 32.607C45.3665 32.7464 45.2685 32.8822 45.1668 33.0179C45.0689 33.1573 45.0199 33.2931 45.0199 33.4288V33.5095H45.3589C45.4983 33.3738 45.6489 33.2894 45.8034 33.2637C45.9578 33.238 46.1348 33.2234 46.3307 33.2234V33.5132C46.1612 33.5132 46.0633 33.5902 46.0331 33.7407C46.003 33.8911 45.9917 34.0378 45.9917 34.1736C45.8486 34.1736 45.7657 34.1882 45.7356 34.2139C45.7092 34.2433 45.6941 34.324 45.6941 34.4597L45.7808 34.5001C45.7808 34.5551 45.8222 34.6101 45.9088 34.6652C45.9955 34.7202 46.0369 34.7899 46.0369 34.8706C46.0369 34.9513 46.0633 35.021 46.1235 35.0761C46.3194 35.0761 46.4211 35.1861 46.4211 35.4062C46.5039 35.4906 46.5491 35.5713 46.5491 35.6557C46.5491 35.7107 46.5265 35.7731 46.4851 35.8428C46.4437 35.9125 46.4211 35.9859 46.4211 36.0703H46.293V36.1106C46.293 36.195 46.2365 36.2904 46.1235 36.4005C46.293 36.4555 46.4474 36.5105 46.5906 36.5656C46.5341 36.5949 46.5416 36.6426 46.6131 36.7086C46.6847 36.7783 46.76 36.859 46.8467 36.9544C46.9333 37.0498 47.0162 37.1415 47.1028 37.2222C47.1857 37.3066 47.2308 37.3617 47.2308 37.3873C47.2308 37.413 47.2949 37.4754 47.4229 37.5744C47.551 37.6698 47.6828 37.7799 47.8259 37.9046C47.9653 38.0294 48.1084 38.1394 48.2478 38.2348C48.3871 38.3302 48.4587 38.3926 48.4587 38.4219C48.6282 38.587 48.7751 38.6824 48.9032 38.7117C49.0312 38.7411 49.163 38.7484 49.3062 38.7338C49.4455 38.7191 49.6075 38.7007 49.792 38.6714C49.9766 38.6457 50.2214 38.6567 50.534 38.7117L51.8447 38.0917L52.2666 37.7212C52.4624 37.5561 52.6884 37.4387 52.9445 37.3727C53.1969 37.303 53.325 37.1195 53.325 36.815C53.2685 36.76 53.227 36.705 53.1969 36.6499C53.2835 36.6499 53.325 36.5949 53.325 36.4848C53.3513 36.4592 53.3815 36.4371 53.4116 36.4225C53.438 36.4078 53.4681 36.3748 53.4982 36.3197C53.4982 36.184 53.6187 36.0446 53.856 35.9089C54.0971 35.7731 54.2703 35.6631 54.3833 35.5787V35.2485C54.5227 35.2485 54.5754 35.2155 54.5302 35.1458C54.4888 35.0761 54.5076 35.0027 54.5943 34.9183L55.4417 34.0525C55.5547 33.9424 55.5961 33.8324 55.5698 33.7223C55.5434 33.6122 55.4907 33.4948 55.4229 33.3701C55.3513 33.2454 55.3099 33.1353 55.2948 33.0399C55.2797 32.9445 55.3588 32.8675 55.5283 32.8125H55.1479C55.0349 32.7024 54.9784 32.6217 54.9784 32.5667C54.9784 32.5116 55.0048 32.4566 55.0651 32.4016C55.1253 32.3465 55.1479 32.2768 55.1479 32.1961C55.291 31.976 55.4229 31.7082 55.5509 31.3927C55.679 31.0772 55.743 30.78 55.743 30.5049H55.404C55.404 30.3691 55.3551 30.2554 55.2571 30.1747C55.1592 30.094 55.1103 29.9839 55.1103 29.8445C55.4756 29.6794 55.6752 29.4666 55.7016 29.2061C55.728 28.9457 55.743 28.6485 55.743 28.3183C55.9389 28.1275 56.0406 27.9074 56.0406 27.6579C56.0406 27.5479 56.0255 27.4525 55.9991 27.3681C55.969 27.2874 55.9577 27.1884 55.9577 27.0783C55.9577 26.9939 55.9841 26.8728 56.0443 26.7078C56.0443 26.4069 56.1498 26.1428 56.3607 25.9226C56.5716 25.7025 56.6771 25.442 56.6771 25.1375H56.3795C56.3795 24.9174 56.4021 24.69 56.4436 24.4588C56.485 24.224 56.5076 24.0003 56.5076 23.7765C56.5076 23.6921 56.5001 23.5967 56.485 23.4866C56.4699 23.3766 56.436 23.2959 56.3795 23.2408C56.5189 23.1051 56.6771 23.0134 56.8466 22.973C57.0161 22.9327 57.2006 22.9106 57.3965 22.9106H57.6526C57.6526 23.1308 57.7844 23.2408 58.0556 23.2408H58.6695C58.7562 23.4059 58.8466 23.5637 58.9445 23.7141C59.0424 23.8645 59.163 24.0113 59.3061 24.147V24.0223C59.3889 24.1066 59.5019 24.147 59.6451 24.147H58.6733C58.6733 24.3414 58.6507 24.4625 58.6093 24.5175C58.5679 24.5726 58.4737 24.668 58.3343 24.8074H59.3098V25.1375C59.3098 25.3834 59.2458 25.5007 59.1178 25.4897C58.9897 25.4751 58.8428 25.4677 58.6733 25.4677C58.8127 25.7686 58.9558 26.1134 59.0952 26.4986C59.2383 26.8838 59.3061 27.2544 59.3061 27.6103H59.9388V27.9808C59.5999 28.1752 59.3475 28.278 59.178 28.289C59.0085 28.3036 58.726 28.311 58.3306 28.311C58.3569 28.366 58.4021 28.443 58.4586 28.5384C58.5151 28.6338 58.5716 28.6815 58.6281 28.6815L58.6695 28.5971C58.726 28.7072 58.7562 28.8026 58.7562 28.887C58.7562 28.942 58.7411 28.9823 58.7147 29.0117C58.6846 29.041 58.6733 29.0814 58.6733 29.1364C58.6733 29.1915 58.7072 29.2612 58.7788 29.3419C58.8503 29.4263 58.9106 29.4923 58.9709 29.5473H58.6733V30.1673L59.0952 30.7433L59.0726 30.758ZM41.4644 31.1285H41.8034C41.6904 31.0185 41.6339 30.9231 41.6339 30.8387V30.7984H41.4644V31.1285ZM41.8448 25.8933C41.8712 25.9777 41.9089 26.0364 41.9503 26.0804C41.9917 26.1208 42.0558 26.1574 42.1424 26.1831C42.229 26.2125 42.3269 26.2785 42.4399 26.3886H43.0765V26.7188C42.9635 26.6087 42.8655 26.528 42.7789 26.4693C42.7488 26.4693 42.7375 26.5243 42.7375 26.6344V26.7188H42.4399V27.0086H43.0765C43.0765 26.8728 43.0915 26.7885 43.1179 26.7628C43.1443 26.7371 43.2309 26.7224 43.3702 26.7224C43.3702 26.5573 43.3853 26.4619 43.4117 26.4326C43.438 26.4069 43.5397 26.3922 43.7092 26.3922C43.7092 26.5317 43.7168 26.6674 43.7318 26.8031C43.7469 26.9425 43.8373 27.0086 44.0068 27.0086C44.0068 26.7885 43.9691 26.583 43.9013 26.3886C43.8297 26.1978 43.6527 26.0987 43.374 26.0987V25.4787C43.4305 25.5338 43.487 25.5815 43.5435 25.6218C43.6 25.6622 43.6565 25.6842 43.713 25.6842C43.7695 25.6842 43.8184 25.6622 43.8599 25.6218C43.9013 25.5815 43.9503 25.5338 44.0068 25.4787V25.3136C43.9503 25.343 43.8938 25.3283 43.8373 25.2733C43.7808 25.2183 43.7394 25.1779 43.7092 25.1486C43.7092 25.0678 43.7318 25.0128 43.7733 24.9835C43.8147 24.9578 43.8373 24.9138 43.8373 24.8587C43.8373 24.8037 43.8222 24.7413 43.7958 24.6716C43.7657 24.6019 43.7394 24.5395 43.7092 24.4845H44.3457V24.1543H43.7092V23.2482C43.5134 23.2482 43.3928 23.2628 43.3476 23.2885C43.3062 23.3179 43.2121 23.3986 43.0727 23.5343C43.1556 23.615 43.2007 23.7251 43.2007 23.8645C43.2007 23.9746 43.1593 24.07 43.0727 24.1543C42.9296 24.1543 42.8241 24.1066 42.7563 24.0113C42.6847 23.9159 42.5793 23.8682 42.4399 23.8682V24.8147H42.1009C42.1009 24.9541 42.0934 25.0422 42.0784 25.0825C42.0633 25.1229 41.9842 25.1449 41.8448 25.1449H42.7337C42.6207 25.2843 42.5228 25.3723 42.4362 25.4127C42.3495 25.4531 42.2252 25.4751 42.0557 25.4751H41.8034C41.8034 25.6658 41.8185 25.8053 41.8448 25.886M41.89 27.0086C42.0332 27.0086 42.1009 26.9389 42.1009 26.8031V26.7224C41.988 26.8325 41.9315 26.9132 41.9315 26.9682V27.0086H41.8034H41.8863H41.89ZM43.0727 27.6249H43.3702V27.9955H42.7337C42.7337 27.7497 42.8467 27.6249 43.0727 27.6249ZM43.3702 24.822H43.0727V24.4919H43.3702V24.822ZM43.5812 32.4089C43.5812 32.1888 43.4832 32.0787 43.2836 32.0787L43.7055 31.7889C43.8184 31.7889 43.8599 31.8219 43.8335 31.8916C43.8034 31.9613 43.8335 32.0237 43.9201 32.0787L43.5812 32.4089ZM43.7092 29.2355V29.5657H43.6678C43.4719 29.5657 43.3702 29.4703 43.3702 29.2758V29.2355H43.7092ZM44.0068 28.9457H43.7092V28.6155H44.0068V28.9457ZM44.406 30.4718C44.1386 30.4462 44.003 30.3471 44.003 30.182H43.7055V29.8518C43.9314 29.8518 44.1499 29.9069 44.3608 30.0169C44.5717 30.127 44.7902 30.182 45.0162 30.182V30.5122C44.8731 30.5122 44.6697 30.4975 44.4022 30.4718M43.9201 33.9754V33.6453H44.0482C44.2177 33.6453 44.3043 33.7407 44.3043 33.9351V33.9754H43.9239H43.9201ZM44.3872 33.8104C44.3872 33.6746 44.3721 33.5902 44.3457 33.5646C44.3156 33.5389 44.2328 33.5242 44.0934 33.5242V33.2344H44.3909V33.8104H44.3872ZM44.0896 35.7474C44.1725 35.6667 44.2365 35.6117 44.2817 35.5823C44.3232 35.5567 44.3533 35.5346 44.3683 35.52C44.3834 35.5053 44.3909 35.4723 44.3909 35.4172V35.0871H45.4493V35.4172C45.4493 35.4723 45.4569 35.5053 45.4719 35.52C45.487 35.5346 45.5209 35.5567 45.5774 35.5823C45.6339 35.6117 45.7054 35.6667 45.7883 35.7474C45.6753 35.7474 45.5698 35.7768 45.4719 35.8318C45.374 35.8868 45.2685 35.9125 45.1555 35.9125C45.099 35.9125 44.971 35.8978 44.7751 35.8722C44.5793 35.8465 44.4512 35.8025 44.3947 35.7474H44.0972H44.0896ZM45.5698 32.2842V32.6144H44.9333V32.2842H45.5698ZM45.0199 34.4707V34.1809H45.1894C45.1593 34.2359 45.1744 34.291 45.2309 34.346C45.2874 34.401 45.3288 34.4414 45.3589 34.4707H45.0199ZM46.0783 36.5729H46.1197L46.9672 37.1085L45.7808 36.4078C45.8938 36.5179 45.9917 36.5729 46.0783 36.5729ZM47.2647 39.3354V38.9649C47.3777 38.9649 47.5171 38.9575 47.6866 38.9429C47.8561 38.9282 47.9389 38.8401 47.9389 38.6751L48.1084 38.9649C48.0218 39.0199 47.9389 39.0749 47.8561 39.13C47.7732 39.185 47.6866 39.2547 47.6037 39.3354H47.2647ZM50.1423 41.5623C49.9728 41.5623 49.8862 41.4816 49.8862 41.3165V41.2321H50.1837V41.5623H50.1423ZM50.8203 42.839V43.1289L51.1593 42.839H50.8203ZM51.4982 41.2321V40.902L51.8372 41.2321H51.4982ZM55.856 35.4172C55.7694 35.4172 55.6715 35.4723 55.5585 35.5823C55.5585 35.3622 55.63 35.2522 55.7694 35.2522H55.9803L55.8522 35.4172H55.856ZM55.9841 39.1703H56.1536C56.0406 39.0896 55.9841 38.9796 55.9841 38.8401V39.1703ZM56.3645 27.6249H56.195C56.308 27.5405 56.3645 27.4452 56.3645 27.3351V27.6249L56.662 27.3351H57.34L57.001 27.6249H56.3645ZM56.662 28.3256V28.6155L56.3645 28.3256H56.662ZM56.9596 36.6536V36.9838H57.2571C57.2835 36.9581 57.3212 36.9214 57.3626 36.8811C57.404 36.8407 57.453 36.8187 57.5095 36.8187C57.3965 36.8187 57.3136 36.7637 57.2571 36.6536H56.9596Z" fill="#111F43"/>
<path d="M85.6862 17.7197L85.6485 17.6059C85.1212 16.0321 86.0063 14.3445 87.6184 13.8345C89.1438 13.3502 90.786 14.106 91.4037 15.5184L91.4526 15.6322C92.1118 17.1547 91.3735 18.9157 89.8105 19.5577C88.2398 20.2034 86.4357 19.4843 85.7804 17.9581C85.7465 17.8847 85.7163 17.8004 85.69 17.7233" fill="#F79333"/>
<path d="M78.0296 7.44342L77.9317 7.37371C76.8281 6.61429 76.5683 5.12847 77.3479 4.05354C78.0861 3.03731 79.4986 2.75849 80.5833 3.37483L80.6887 3.43353C81.8563 4.10123 82.2443 5.56137 81.5626 6.69867C80.8771 7.83597 79.3743 8.21751 78.2067 7.54981C78.1464 7.51679 78.0861 7.47644 78.0296 7.43975" fill="#F79333"/>
<path d="M65.2159 3.55459H65.0916C64.0897 3.58028 63.2574 2.80618 63.231 1.82664C63.2084 0.905791 63.924 0.128027 64.8506 0.0253031L64.9711 0.0106283C65.973 -0.0957641 66.8731 0.608627 66.9824 1.5845C67.0916 2.55671 66.3684 3.4372 65.3666 3.54359C65.3138 3.54726 65.2611 3.55093 65.2121 3.55093" fill="#F79333"/>
<path d="M52.1728 8.05265L52.0749 8.12602C51.5551 8.52224 50.8094 8.43419 50.4026 7.92791C50.0146 7.45098 50.0824 6.7686 50.5269 6.36137L50.6173 6.27699C51.1031 5.83675 51.8602 5.8661 52.3084 6.33569C52.7566 6.80896 52.7302 7.54636 52.2444 7.98294C52.218 8.00495 52.1954 8.02696 52.169 8.04531" fill="#F79333"/>
<path d="M44.2743 19.561L44.2441 19.6747C44.1613 19.9682 43.8524 20.1369 43.5511 20.0599C43.2686 19.9829 43.0954 19.7077 43.1481 19.4289L43.1707 19.3115C43.2272 19.0107 43.5247 18.8125 43.8336 18.8676C44.1424 18.9226 44.3458 19.2124 44.2893 19.5133C44.2893 19.5279 44.2818 19.5463 44.278 19.561" fill="#F79333"/>
<path d="M69.4384 36.8409C69.574 38.1507 70.0825 39.0642 70.9676 39.5888C71.8527 40.1134 72.9148 40.3739 74.1502 40.3739C74.5796 40.3739 75.0692 40.3409 75.6191 40.2748C76.169 40.2088 76.685 40.0841 77.1709 39.9006C77.653 39.7172 78.0485 39.4494 78.3573 39.0972C78.6662 38.745 78.8055 38.2791 78.7792 37.7031C78.7528 37.1271 78.5381 36.6575 78.1351 36.2906C77.7321 35.9238 77.2161 35.6303 76.5833 35.4065C75.9506 35.1827 75.235 34.9956 74.4289 34.8378C73.6229 34.6801 72.8018 34.5113 71.9732 34.3279C71.1145 34.1444 70.2858 33.9206 69.4949 33.6602C68.7039 33.3997 67.9921 33.0475 67.3593 32.5999C66.7303 32.156 66.2256 31.5873 65.849 30.894C65.4723 30.2006 65.284 29.3421 65.284 28.3222C65.284 27.2253 65.559 26.3007 66.1089 25.556C66.6588 24.8113 67.3593 24.2096 68.203 23.751C69.0505 23.2924 69.9883 22.9732 71.0241 22.7898C72.0561 22.6064 73.0429 22.5146 73.9845 22.5146C75.0579 22.5146 76.0862 22.6247 77.0654 22.8485C78.0447 23.0723 78.9298 23.4318 79.7246 23.9271C80.5155 24.426 81.1746 25.0717 81.6982 25.8678C82.2217 26.6676 82.5494 27.6288 82.685 28.7514H77.8903C77.6756 27.6802 77.1709 26.9611 76.38 26.5942C75.589 26.2274 74.6813 26.0439 73.6606 26.0439C73.3367 26.0439 72.9563 26.0696 72.5118 26.121C72.0674 26.1723 71.6531 26.2714 71.2614 26.4145C70.8696 26.5576 70.542 26.7667 70.2745 27.0418C70.0071 27.317 69.8715 27.6765 69.8715 28.1204C69.8715 28.6707 70.0674 29.1146 70.4553 29.4558C70.8433 29.797 71.3555 30.0795 71.9845 30.2996C72.6135 30.5234 73.3329 30.7105 74.1389 30.8683C74.9449 31.026 75.7773 31.1948 76.6361 31.3782C77.4685 31.5617 78.2895 31.7855 79.0918 32.0459C79.8978 32.3064 80.6134 32.6623 81.2462 33.1062C81.879 33.5501 82.3874 34.1151 82.7791 34.7938C83.1671 35.4762 83.3629 36.3126 83.3629 37.3069C83.3629 38.5102 83.0805 39.5301 82.5155 40.3665C81.9505 41.203 81.2198 41.8854 80.3197 42.4063C79.4195 42.931 78.4176 43.3088 77.3178 43.5436C76.218 43.7784 75.1295 43.8958 74.0561 43.8958C72.7416 43.8958 71.525 43.7528 70.4101 43.4629C69.2953 43.1768 68.3273 42.7365 67.51 42.1495C66.6889 41.5625 66.0448 40.8288 65.5778 39.952C65.107 39.0752 64.8584 38.0369 64.832 36.8336H69.4233L69.4384 36.8409Z" fill="#F79333"/>
<path d="M91.5923 23.0684H87.001V43.3563H91.5923V23.0684Z" fill="#F79333"/>
<path d="M94.4922 23.0685H97.9573V16.9858H102.549V23.0685H106.699V26.4034H102.549V37.2334C102.549 37.703 102.567 38.1102 102.609 38.4514C102.65 38.7926 102.744 39.0788 102.891 39.3136C103.038 39.5484 103.26 39.7245 103.558 39.8455C103.852 39.9629 104.255 40.0216 104.767 40.0216C105.091 40.0216 105.411 40.0143 105.735 40.0033C106.055 39.9886 106.379 39.9446 106.703 39.8639V43.3161C106.195 43.3675 105.697 43.4188 105.211 43.4739C104.729 43.5252 104.232 43.5509 103.72 43.5509C102.511 43.5509 101.539 43.4408 100.801 43.2171C100.063 42.9969 99.4865 42.6668 99.0684 42.2375C98.6541 41.8046 98.3716 41.2616 98.2247 40.6086C98.0778 39.9556 97.9912 39.2072 97.9611 38.3707V26.4034H94.496V23.0685H94.4922Z" fill="#F79333"/>
<path d="M107.705 23.0684H112.741L118.18 38.2128H118.259L123.535 23.0684H128.33L120.232 44.4532C119.856 45.3704 119.487 46.2435 119.125 47.0837C118.763 47.9201 118.319 48.6576 117.795 49.2996C117.272 49.9416 116.62 50.4515 115.841 50.8294C115.061 51.2073 114.067 51.3981 112.861 51.3981C111.788 51.3981 110.726 51.321 109.679 51.1633V47.3955C110.055 47.4469 110.417 47.5056 110.767 47.5716C111.114 47.6377 111.479 47.6707 111.856 47.6707C112.391 47.6707 112.835 47.6046 113.185 47.4762C113.536 47.3442 113.822 47.1534 114.052 46.9076C114.278 46.6581 114.473 46.3646 114.635 46.0234C114.797 45.6822 114.944 45.2897 115.08 44.8458L115.603 43.2756L107.709 23.0684H107.705Z" fill="#F79333"/>
</svg>
